<?xml version="1.0" encoding="UTF-8" standalone="no"?>
<svg
   width="800"
   height="600"
   version="1.1"
   id="svg2890"
   sodipodi:docname="hangman-05.svg"
   inkscape:version="1.2 (dc2aeda, 2022-05-15)"
   xmlns:inkscape="http://www.inkscape.org/namespaces/inkscape"
   xmlns:sodipodi="http://sodipodi.sourceforge.net/DTD/sodipodi-0.dtd"
   xmlns:xlink="http://www.w3.org/1999/xlink"
   xmlns="http://www.w3.org/2000/svg"
   xmlns:svg="http://www.w3.org/2000/svg">
  <defs
     id="defs2894">
    <path
       id="SVGID_1_"
       d="m 123.654,154.807 c 0,0 0.211,0.065 0.618,0.192 0.408,0.123 1.014,0.304 1.804,0.54 0.787,0.233 1.758,0.52 2.898,0.857 1.139,0.33 2.447,0.708 3.912,1.131 2.93,0.831 6.475,1.828 10.54,2.903 4.063,1.077 8.641,2.25 13.635,3.426 9.987,2.352 21.626,4.783 34.102,6.598 12.474,1.808 25.786,3.04 39.035,3 1.655,-0.002 3.308,-0.044 4.961,-0.063 l 0.619,-0.009 0.154,-0.002 0.078,-0.001 c 0.067,-0.001 -0.313,0.015 -0.114,0.006 l 0.324,-0.018 1.295,-0.064 c 0.863,-0.041 1.727,-0.081 2.589,-0.122 3.429,-0.185 6.963,-0.237 10.1,-0.573 1.613,-0.126 3.22,-0.251 4.818,-0.376 0.804,-0.065 1.595,-0.09 2.403,-0.187 0.808,-0.094 1.612,-0.187 2.416,-0.28 1.609,-0.175 3.208,-0.35 4.797,-0.523 0.794,-0.091 1.589,-0.161 2.376,-0.26 0.786,-0.113 1.568,-0.225 2.347,-0.337 1.563,-0.217 3.111,-0.432 4.646,-0.646 0.767,-0.109 1.536,-0.197 2.293,-0.322 0.757,-0.128 1.51,-0.256 2.259,-0.383 2.99,-0.536 5.957,-0.927 8.795,-1.535 2.848,-0.569 5.651,-1.037 8.318,-1.666 1.345,-0.289 2.666,-0.573 3.962,-0.851 1.31,-0.249 2.554,-0.615 3.805,-0.887 1.247,-0.293 2.468,-0.58 3.661,-0.859 1.195,-0.282 2.337,-0.626 3.478,-0.9 1.137,-0.289 2.244,-0.571 3.319,-0.844 1.068,-0.3 2.102,-0.603 3.116,-0.872 1.01,-0.278 1.996,-0.536 2.938,-0.809 0.935,-0.289 1.843,-0.555 2.721,-0.805 1.761,-0.489 3.346,-1.017 4.804,-1.452 2.902,-0.9 5.18,-1.658 6.74,-2.18 0.78,-0.266 1.378,-0.471 1.78,-0.608 0.402,-0.144 0.61,-0.219 0.61,-0.219 0,0 -0.644,0.606 -1.923,1.664 -0.646,0.514 -1.432,1.183 -2.399,1.89 -0.96,0.72 -2.064,1.563 -3.346,2.427 -1.268,0.89 -2.691,1.853 -4.273,2.838 -0.787,0.504 -1.611,1.022 -2.473,1.549 -0.865,0.52 -1.772,1.032 -2.706,1.577 -0.934,0.546 -1.905,1.096 -2.912,1.652 -1.017,0.532 -2.063,1.08 -3.136,1.642 -1.076,0.562 -2.184,1.139 -3.334,1.685 -1.154,0.54 -2.336,1.092 -3.543,1.656 -2.407,1.161 -4.98,2.194 -7.648,3.278 -2.656,1.127 -5.473,2.078 -8.363,3.101 -0.724,0.253 -1.452,0.507 -2.186,0.764 -0.734,0.257 -1.487,0.461 -2.237,0.696 -1.508,0.45 -3.034,0.906 -4.577,1.367 -0.773,0.229 -1.551,0.458 -2.333,0.688 -0.785,0.216 -1.582,0.396 -2.38,0.597 -1.6,0.389 -3.213,0.78 -4.842,1.176 -0.815,0.194 -1.635,0.389 -2.457,0.584 -0.824,0.186 -1.661,0.328 -2.497,0.489 -1.674,0.313 -3.361,0.627 -5.059,0.944 -3.362,0.688 -6.948,1.044 -10.495,1.518 -3.636,0.511 -6.979,0.689 -10.438,0.934 -0.86,0.06 -1.723,0.118 -2.585,0.178 l -1.294,0.085 -0.324,0.02 -0.36,0.015 -0.169,0.004 -0.679,0.016 c -1.809,0.033 -3.619,0.097 -5.428,0.102 -7.239,0.012 -14.451,-0.49 -21.477,-1.377 -7.026,-0.886 -13.861,-2.186 -20.374,-3.774 -13.032,-3.174 -24.747,-7.509 -34.402,-11.942 -4.831,-2.217 -9.159,-4.44 -12.918,-6.544 -3.759,-2.106 -6.955,-4.075 -9.531,-5.782 -1.291,-0.849 -2.429,-1.628 -3.404,-2.328 -0.981,-0.691 -1.8,-1.303 -2.459,-1.804 -0.661,-0.497 -1.153,-0.902 -1.488,-1.168 -0.332,-0.277 -0.503,-0.417 -0.503,-0.417 z" />
    <clipPath
       id="SVGID_2_">
      <use
         xlink:href="#SVGID_1_"
         overflow="visible"
         id="use3861" />
    </clipPath>
    <clipPath
       id="clipPath3949">
      <use
         xlink:href="#SVGID_1_"
         overflow="visible"
         id="use3947" />
    </clipPath>
    <clipPath
       id="clipPath3953">
      <use
         xlink:href="#SVGID_1_"
         overflow="visible"
         id="use3951" />
    </clipPath>
    <clipPath
       id="clipPath3957">
      <use
         xlink:href="#SVGID_1_"
         overflow="visible"
         id="use3955" />
    </clipPath>
    <clipPath
       id="clipPath3961">
      <use
         xlink:href="#SVGID_1_"
         overflow="visible"
         id="use3959" />
    </clipPath>
    <clipPath
       id="clipPath3965">
      <use
         xlink:href="#SVGID_1_"
         overflow="visible"
         id="use3963" />
    </clipPath>
    <clipPath
       id="clipPath3969">
      <use
         xlink:href="#SVGID_1_"
         overflow="visible"
         id="use3967" />
    </clipPath>
    <clipPath
       id="clipPath3973">
      <use
         xlink:href="#SVGID_1_"
         overflow="visible"
         id="use3971" />
    </clipPath>
  </defs>
  <sodipodi:namedview
     id="namedview2892"
     pagecolor="#505050"
     bordercolor="#eeeeee"
     borderopacity="1"
     inkscape:showpageshadow="0"
     inkscape:pageopacity="0"
     inkscape:pagecheckerboard="0"
     inkscape:deskcolor="#505050"
     showgrid="false"
     inkscape:zoom="1.1583333"
     inkscape:cx="380.28778"
     inkscape:cy="298.27339"
     inkscape:window-width="1367"
     inkscape:window-height="915"
     inkscape:window-x="0"
     inkscape:window-y="25"
     inkscape:window-maximized="0"
     inkscape:current-layer="svg2890" />
  <!-- Created with Method Draw - http://github.com/duopixel/Method-Draw/ -->
  <rect
     id="svg_2"
     height="22"
     width="697"
     y="536"
     x="52.5"
     stroke="#000000"
     fill="#7f3f00" />
  <rect
     id="svg_3"
     height="509"
     width="24"
     y="27"
     x="91.5"
     stroke="#000000"
     fill="#7f3f00" />
  <rect
     id="svg_4"
     height="24"
     width="532"
     y="53"
     x="116.5"
     stroke="#000000"
     fill="#7f3f00" />
  <path
     stroke="#000000"
     id="svg_7"
     d="m 115.70248,75.39499 v 125 l 134.00005,-125 z"
     fill="#7f3f00" />
  <rect
     id="svg_9"
     height="112"
     width="4"
     y="77"
     x="438.5"
     stroke="#000000"
     fill="#7f7f7f" />
  <path
     id="svg_19"
     d="m 608.71913,8.71486 c 1.27284,-2.06826 4.16996,-2.43552 6.36475,-2.71533 2.44749,0.23117 4.33382,2.23643 5.76874,4.17557 1.66922,1.58498 3.70721,2.92996 4.54263,5.25053 2.11223,1.09998 4.60586,1.68834 5.89878,4.04181 1.9542,2.65493 3.08036,5.86845 4.0992,8.98147 0.16178,2.32068 1.13748,4.43777 1.46984,6.73752 0.56997,2.27997 1.02433,4.53395 1.63847,6.7938 0.68255,2.34945 1.65223,4.58523 2.33171,6.93797 1.24102,2.06471 2.37089,4.24315 3.14138,6.54256 -1.84361,-0.16423 0.17028,2.93027 0.51604,4.15019 0.50412,2.51089 -2.25833,1.07336 -2.7414,-0.08617 -1.70614,1.6963 -5.19911,2.07717 -6.74523,-0.1492 -1.62868,-2.25583 -2.52822,-5.11812 -4.77646,-6.7511 -0.88398,-0.77336 -1.74167,-4.1503 -2.05803,-1.16793 1.12252,2.96725 -3.2951,1.27606 -4.86422,1.80893 -2.81235,-0.5944 1.06762,-2.2838 2.26252,-2.08365 1.12272,-1.17417 2.99116,-3.14068 0.30923,-3.75705 -1.83673,-0.76748 -4.19139,-2.71374 -5.22404,0.18329 -1.29668,0.7209 -3.62062,4.14089 -1.04664,4.39293 1.04011,2.23758 -3.0017,0.61913 -4.1303,1.14838 -1.06409,0.35261 -3.71617,-0.26564 -1.24611,-0.83131 2.12517,-0.36672 3.13841,-3.11033 4.47265,-4.77223 -0.0442,-2.13221 -1.66812,-3.82444 -2.88531,-5.43433 -1.29486,-2.26915 -3.10156,-4.21274 -4.00127,-6.69626 -0.59017,-2.57882 -1.71379,-4.96314 -2.28364,-7.5479 -0.64335,-2.59031 -1.38111,-5.5111 0.003,-7.99333 0.631,-2.17781 0.89375,-4.20967 -0.43043,-6.00224 -1.82968,-1.56301 -4.43014,-0.93613 -6.53985,-1.97265 -0.25427,-1.67405 3.12352,-2.31279 4.59158,-2.68673 0.55736,-0.02034 0.98397,-0.51033 1.56209,-0.49754 v 10e-6 z"
     stroke="#000000"
     fill="#000000" />
  <g
     id="g330"
     transform="matrix(0.34392585,-0.06611148,0.03803822,0.59775251,355.05841,167.56926)">
    <path
       style="fill:#00758d"
       inkscape:connector-curvature="0"
       id="path328"
       d="m 125.999,50.146 c 0,0 -18.277,79.842 -2.405,138.04 0,0 80.804,37.516 212.591,2.405 0,0 23.087,-88.019 8.177,-135.154 C 344.361,55.436 215.46,15.515 125.999,50.146 Z" />
  </g>
  <g
     id="g346"
     transform="matrix(0.34392585,-0.06611148,0.03803822,0.59775251,355.05841,167.56926)">
    <g
       id="g340">
      <g
         id="g334">
        <path
           style="fill:#ffffff"
           inkscape:connector-curvature="0"
           id="path332"
           d="m 291.935,150.191 c -21.481,0 -38.959,-17.477 -38.959,-38.959 0,-21.482 17.478,-38.959 38.959,-38.959 21.482,0 38.959,17.477 38.959,38.959 0,21.482 -17.477,38.959 -38.959,38.959 z" />
      </g>
      <g
         id="g338">
        <path
           style="fill:#d1d3d3"
           inkscape:connector-curvature="0"
           id="path336"
           d="m 291.935,74.678 c 20.156,0 36.555,16.398 36.555,36.554 0,20.156 -16.398,36.554 -36.555,36.554 -20.155,0 -36.554,-16.398 -36.554,-36.554 0,-20.156 16.398,-36.554 36.554,-36.554 m 0,-4.81 c -22.844,0 -41.363,18.52 -41.363,41.364 0,22.845 18.52,41.364 41.363,41.364 22.845,0 41.364,-18.519 41.364,-41.364 0,-22.844 -18.52,-41.364 -41.364,-41.364 z" />
      </g>
    </g>
    <g
       id="g344">
      <path
         style="fill:#264c59"
         inkscape:connector-curvature="0"
         id="path342"
         d="m 250.571,111.232 c 0,0 0.006,-0.253 0.017,-0.745 0.021,-0.491 0.001,-1.223 0.089,-2.171 0.113,-1.897 0.427,-4.69 1.354,-8.126 0.434,-1.726 1.094,-3.588 1.92,-5.567 0.834,-1.978 1.896,-4.054 3.233,-6.149 2.665,-4.186 6.441,-8.49 11.483,-12.063 5.037,-3.542 11.359,-6.31 18.463,-7.319 0.885,-0.14 1.785,-0.206 2.688,-0.304 0.454,-0.024 0.909,-0.049 1.365,-0.074 l 0.687,-0.037 0.703,-0.006 c 0.448,-0.002 0.897,-0.004 1.348,-0.006 0.455,0.003 0.938,0.038 1.407,0.056 0.956,0.025 1.883,0.14 2.827,0.228 1.877,0.239 3.776,0.552 5.65,1.055 0.948,0.218 1.872,0.533 2.813,0.814 0.465,0.157 0.925,0.333 1.388,0.501 l 0.696,0.256 0.684,0.289 c 3.666,1.512 7.182,3.589 10.395,6.146 3.2,2.573 6.077,5.649 8.46,9.123 1.196,1.734 2.242,3.579 3.19,5.48 0.935,1.91 1.691,3.91 2.346,5.945 0.648,2.04 1.1,4.141 1.435,6.259 0.143,1.063 0.289,2.127 0.353,3.199 0.043,0.535 0.088,1.07 0.094,1.606 l 0.044,1.67 -0.041,1.522 c -0.011,0.259 -0.006,0.495 -0.029,0.774 l -0.063,0.825 c -0.049,0.545 -0.07,1.11 -0.146,1.638 l -0.207,1.596 c -0.339,2.118 -0.781,4.221 -1.432,6.261 -0.653,2.036 -1.412,4.035 -2.345,5.946 -0.943,1.904 -1.993,3.749 -3.189,5.483 -2.377,3.479 -5.262,6.55 -8.458,9.13 -3.215,2.558 -6.73,4.635 -10.399,6.147 l -0.684,0.289 -0.695,0.256 c -0.465,0.168 -0.924,0.344 -1.389,0.503 -0.94,0.281 -1.865,0.597 -2.813,0.814 -1.876,0.503 -3.775,0.816 -5.653,1.054 -0.943,0.088 -1.878,0.203 -2.813,0.227 -0.467,0.018 -0.932,0.052 -1.396,0.056 -0.464,-0.002 -0.927,-0.004 -1.389,-0.005 l -0.718,-0.006 -0.668,-0.037 c -0.444,-0.025 -0.887,-0.05 -1.329,-0.074 -0.908,-0.097 -1.833,-0.166 -2.716,-0.305 -7.106,-1.011 -13.428,-3.784 -18.466,-7.325 -5.042,-3.575 -8.817,-7.88 -11.481,-12.067 -1.338,-2.095 -2.399,-4.171 -3.231,-6.15 -0.827,-1.979 -1.487,-3.841 -1.921,-5.567 -0.927,-3.437 -1.24,-6.229 -1.354,-8.126 -0.088,-0.949 -0.068,-1.68 -0.089,-2.171 -0.012,-0.494 -0.018,-0.748 -0.018,-0.748 z m 0,0 c 0,0 0.007,0.254 0.021,0.746 0.024,0.491 0.008,1.222 0.102,2.17 0.133,1.894 0.435,4.69 1.418,8.105 0.973,3.404 2.592,7.461 5.378,11.539 2.755,4.072 6.657,8.184 11.756,11.4 2.545,1.603 5.368,2.989 8.411,4.054 3.046,1.056 6.326,1.726 9.713,2.018 0.848,0.082 1.682,0.09 2.535,0.134 0.442,-0.002 0.886,-0.004 1.331,-0.006 l 0.669,-0.003 0.621,-0.034 c 0.434,-0.024 0.869,-0.048 1.306,-0.073 0.436,-0.03 0.87,-0.089 1.308,-0.132 0.875,-0.073 1.744,-0.235 2.618,-0.37 1.74,-0.33 3.485,-0.724 5.194,-1.297 0.863,-0.252 1.7,-0.598 2.551,-0.907 0.418,-0.176 0.836,-0.352 1.256,-0.529 l 0.628,-0.268 0.615,-0.298 c 6.597,-3.124 12.453,-8.238 16.544,-14.606 2.038,-3.188 3.646,-6.673 4.725,-10.331 0.54,-1.829 0.926,-3.703 1.219,-5.59 l 0.177,-1.423 c 0.067,-0.478 0.075,-0.93 0.117,-1.395 0.094,-0.883 0.077,-1.967 0.113,-2.963 l -0.033,-1.375 c 0,-0.479 -0.039,-0.956 -0.075,-1.433 -0.05,-0.957 -0.178,-1.904 -0.297,-2.853 -0.06,-0.474 -0.159,-0.942 -0.237,-1.413 l -0.123,-0.706 -0.157,-0.698 c -0.108,-0.465 -0.196,-0.935 -0.318,-1.395 l -0.379,-1.379 c -1.081,-3.657 -2.682,-7.147 -4.723,-10.334 -4.088,-6.373 -9.945,-11.491 -16.547,-14.613 l -0.615,-0.298 -0.628,-0.268 c -0.42,-0.177 -0.838,-0.354 -1.255,-0.531 -0.852,-0.309 -1.689,-0.655 -2.553,-0.907 -1.709,-0.572 -3.456,-0.966 -5.196,-1.296 -0.874,-0.134 -1.75,-0.296 -2.604,-0.368 -0.434,-0.043 -0.852,-0.102 -1.296,-0.132 -0.45,-0.025 -0.898,-0.05 -1.346,-0.074 l -0.638,-0.034 -0.649,-0.003 c -0.433,-0.002 -0.864,-0.004 -1.295,-0.007 -0.858,0.043 -1.716,0.053 -2.563,0.135 -3.388,0.294 -6.669,0.962 -9.715,2.022 -3.044,1.065 -5.866,2.452 -8.412,4.056 -5.098,3.218 -8.999,7.333 -11.754,11.405 -2.786,4.077 -4.403,8.136 -5.376,11.539 -0.983,3.416 -1.285,6.212 -1.418,8.105 -0.094,0.948 -0.077,1.679 -0.102,2.17 -0.015,0.491 -0.022,0.744 -0.022,0.744 z" />
    </g>
  </g>
  <g
     id="g350"
     transform="matrix(0.56095147,-0.10782944,0.08986299,1.412154,285.10443,73.644959)"
     style="stroke-width:0.509436">
    <circle
       style="fill:#264c59;stroke-width:0.509436"
       id="circle348"
       r="10.341"
       cy="124.696"
       cx="291.228" />
  </g>
  <g
     id="g366"
     transform="matrix(0.34392585,-0.06611148,0.03803822,0.59775251,355.05841,167.56926)">
    <g
       id="g360">
      <g
         id="g354">
        <path
           style="fill:#ffffff"
           inkscape:connector-curvature="0"
           id="path352"
           d="m 170.475,150.191 c -21.481,0 -38.959,-17.477 -38.959,-38.959 0,-21.482 17.478,-38.959 38.959,-38.959 21.482,0 38.959,17.477 38.959,38.959 0,21.482 -17.477,38.959 -38.959,38.959 z" />
      </g>
      <g
         id="g358">
        <path
           style="fill:#d1d3d3"
           inkscape:connector-curvature="0"
           id="path356"
           d="m 170.475,74.678 c 20.156,0 36.555,16.398 36.555,36.554 0,20.156 -16.398,36.554 -36.555,36.554 -20.157,0 -36.554,-16.398 -36.554,-36.554 0,-20.156 16.397,-36.554 36.554,-36.554 m 0,-4.81 c -22.844,0 -41.363,18.52 -41.363,41.364 0,22.845 18.52,41.364 41.363,41.364 22.845,0 41.364,-18.519 41.364,-41.364 0,-22.844 -18.52,-41.364 -41.364,-41.364 z" />
      </g>
    </g>
    <g
       id="g364">
      <path
         style="fill:#264c59"
         inkscape:connector-curvature="0"
         id="path362"
         d="m 211.839,111.232 c 0,0 -0.006,0.254 -0.018,0.746 -0.021,0.491 0,1.223 -0.088,2.171 -0.113,1.898 -0.428,4.69 -1.354,8.126 -0.434,1.727 -1.095,3.588 -1.921,5.567 -0.833,1.978 -1.896,4.054 -3.232,6.148 -2.664,4.187 -6.441,8.49 -11.483,12.063 -5.037,3.542 -11.359,6.311 -18.464,7.32 -0.884,0.139 -1.784,0.206 -2.688,0.304 -0.454,0.025 -0.909,0.05 -1.366,0.074 l -0.687,0.037 -0.702,0.006 c -0.448,0.002 -0.897,0.004 -1.348,0.006 -0.455,-0.003 -0.938,-0.038 -1.408,-0.056 -0.956,-0.025 -1.883,-0.139 -2.827,-0.228 -1.877,-0.239 -3.775,-0.552 -5.65,-1.055 -0.947,-0.218 -1.871,-0.533 -2.812,-0.815 -0.466,-0.156 -0.925,-0.332 -1.389,-0.5 l -0.695,-0.257 -0.684,-0.289 c -3.667,-1.512 -7.182,-3.589 -10.396,-6.146 -3.2,-2.573 -6.076,-5.65 -8.459,-9.123 -1.197,-1.734 -2.243,-3.579 -3.191,-5.48 -0.935,-1.91 -1.69,-3.91 -2.345,-5.945 -0.648,-2.039 -1.101,-4.14 -1.436,-6.259 -0.142,-1.063 -0.288,-2.126 -0.352,-3.199 -0.044,-0.535 -0.089,-1.07 -0.094,-1.607 l -0.044,-1.67 0.04,-1.522 c 0.012,-0.26 0.007,-0.495 0.03,-0.774 l 0.063,-0.825 c 0.05,-0.545 0.071,-1.11 0.147,-1.637 l 0.207,-1.596 c 0.339,-2.119 0.781,-4.222 1.432,-6.261 0.653,-2.036 1.411,-4.035 2.344,-5.946 0.944,-1.904 1.994,-3.748 3.19,-5.482 2.377,-3.479 5.262,-6.55 8.458,-9.13 3.214,-2.558 6.73,-4.635 10.398,-6.147 l 0.685,-0.289 0.695,-0.256 c 0.465,-0.168 0.924,-0.344 1.388,-0.503 0.941,-0.282 1.866,-0.596 2.813,-0.814 1.875,-0.503 3.774,-0.816 5.652,-1.054 0.944,-0.088 1.878,-0.203 2.813,-0.227 0.467,-0.018 0.933,-0.052 1.396,-0.056 0.464,0.001 0.926,0.003 1.388,0.005 l 0.718,0.007 0.668,0.037 c 0.444,0.024 0.888,0.049 1.33,0.074 0.908,0.097 1.832,0.165 2.716,0.305 7.105,1.011 13.428,3.784 18.465,7.326 5.042,3.574 8.818,7.88 11.482,12.067 1.337,2.095 2.399,4.171 3.231,6.149 0.826,1.979 1.486,3.841 1.921,5.567 0.926,3.437 1.24,6.229 1.354,8.126 0.088,0.949 0.067,1.68 0.088,2.171 0.015,0.493 0.021,0.746 0.021,0.746 z m 0,0 c 0,0 -0.007,-0.253 -0.021,-0.745 -0.024,-0.491 -0.009,-1.223 -0.102,-2.17 -0.133,-1.893 -0.436,-4.69 -1.418,-8.105 -0.973,-3.403 -2.592,-7.461 -5.378,-11.538 -2.756,-4.071 -6.657,-8.184 -11.756,-11.401 -2.546,-1.603 -5.368,-2.989 -8.411,-4.053 -3.047,-1.057 -6.327,-1.726 -9.714,-2.019 -0.848,-0.082 -1.682,-0.091 -2.534,-0.134 -0.442,0.002 -0.886,0.004 -1.331,0.006 l -0.669,0.003 -0.622,0.034 c -0.434,0.024 -0.869,0.049 -1.305,0.074 -0.436,0.029 -0.871,0.089 -1.308,0.132 -0.875,0.074 -1.743,0.236 -2.618,0.37 -1.74,0.33 -3.486,0.724 -5.194,1.296 -0.864,0.252 -1.701,0.599 -2.552,0.908 -0.417,0.176 -0.835,0.353 -1.255,0.529 l -0.628,0.267 -0.615,0.299 c -6.598,3.123 -12.454,8.238 -16.544,14.605 -2.039,3.187 -3.646,6.674 -4.725,10.331 -0.54,1.829 -0.926,3.702 -1.219,5.59 l -0.177,1.423 c -0.067,0.478 -0.075,0.929 -0.117,1.395 -0.093,0.883 -0.077,1.966 -0.114,2.963 l 0.033,1.375 c 0,0.479 0.039,0.956 0.076,1.433 0.049,0.956 0.178,1.904 0.296,2.853 0.061,0.474 0.16,0.941 0.237,1.413 l 0.123,0.706 0.158,0.698 c 0.108,0.465 0.196,0.935 0.318,1.396 l 0.379,1.38 c 1.08,3.656 2.682,7.147 4.723,10.334 4.087,6.373 9.945,11.492 16.546,14.613 l 0.616,0.298 0.628,0.267 c 0.419,0.177 0.837,0.354 1.255,0.531 0.852,0.309 1.688,0.655 2.553,0.907 1.708,0.573 3.456,0.967 5.195,1.296 0.874,0.134 1.75,0.296 2.605,0.368 0.434,0.042 0.851,0.102 1.296,0.132 0.449,0.025 0.898,0.049 1.346,0.074 l 0.638,0.033 0.648,0.003 c 0.434,0.002 0.865,0.004 1.296,0.007 0.857,-0.042 1.716,-0.053 2.563,-0.135 3.388,-0.294 6.669,-0.963 9.715,-2.022 3.043,-1.066 5.866,-2.452 8.411,-4.055 5.1,-3.219 9,-7.333 11.755,-11.405 2.786,-4.077 4.403,-8.136 5.376,-11.54 0.982,-3.416 1.285,-6.212 1.418,-8.105 0.093,-0.947 0.077,-1.679 0.102,-2.17 0.015,-0.491 0.022,-0.745 0.022,-0.745 z" />
    </g>
  </g>
  <g
     id="g370"
     transform="matrix(0.58068107,-0.11162197,0.08877195,1.3950086,308.2848,71.891595)"
     style="stroke-width:0.503774">
    <circle
       style="fill:#264c59;stroke-width:0.503774"
       id="circle368"
       cy="124.696"
       cx="169.76801"
       r="10.341" />
  </g>
  <g
     id="g374"
     transform="matrix(0.34392585,-0.06611148,0.03803822,0.59775251,355.05841,167.56926)">
    <path
       style="fill:#264c59"
       inkscape:connector-curvature="0"
       id="path372"
       d="m 222.193,136.24 c 0.104,0.582 0.202,1.163 0.281,1.744 0.077,0.581 0.17,1.162 0.23,1.744 0.138,1.162 0.269,2.325 0.367,3.487 0.203,2.325 0.343,4.649 0.436,6.974 l -1.314,-1.313 c 1.323,-0.049 2.646,-0.085 3.969,-0.105 l 1.983,-0.018 c 0.661,-0.008 1.323,-0.004 1.984,0.001 0.661,0.005 1.322,0.005 1.983,0.022 l 1.984,0.044 c 1.323,0.039 2.646,0.093 3.968,0.163 l -1.205,1.206 c 0.104,-1.924 0.247,-3.848 0.437,-5.771 0.043,-0.481 0.103,-0.962 0.158,-1.443 l 0.169,-1.443 c 0.132,-0.962 0.263,-1.924 0.441,-2.886 0.18,0.962 0.311,1.924 0.442,2.886 l 0.169,1.443 c 0.055,0.481 0.115,0.962 0.158,1.443 0.189,1.924 0.332,3.848 0.437,5.771 l 0.062,1.139 -1.268,0.067 c -1.322,0.069 -2.645,0.124 -3.968,0.163 l -1.984,0.044 c -0.661,0.017 -1.322,0.017 -1.983,0.022 -0.661,0.005 -1.323,0.01 -1.984,0.002 l -1.983,-0.018 c -1.323,-0.021 -2.646,-0.057 -3.969,-0.105 l -1.363,-0.05 0.05,-1.264 c 0.093,-2.325 0.231,-4.649 0.436,-6.974 0.098,-1.162 0.229,-2.325 0.367,-3.487 0.06,-0.582 0.153,-1.163 0.23,-1.744 0.079,-0.582 0.177,-1.163 0.28,-1.744 z" />
  </g>
  <g
     id="g488"
     transform="matrix(0.34602144,-0.00178837,0.00102897,0.60139471,361.44934,152.37614)">
    <path
       style="fill:#264c59;fill-opacity:1;fill-rule:evenodd;stroke-width:1"
       id="path5229"
       sodipodi:type="arc"
       sodipodi:cx="228.82405"
       sodipodi:cy="162.32596"
       sodipodi:rx="46.875786"
       sodipodi:ry="37.942413"
       sodipodi:start="6.2711549"
       sodipodi:end="3.1415927"
       d="m 275.69644,161.86951 a 46.875786,37.942413 0 0 1 -23.10967,33.16233 46.875786,37.942413 0 0 1 -47.03763,0.22902 46.875786,37.942413 0 0 1 -23.60087,-32.9349 h 46.87578 z"
       sodipodi:arc-type="slice" />
  </g>
  <ellipse
     style="fill:#ffffff;fill-opacity:1;fill-rule:evenodd;stroke-width:0.458007"
     id="path5223"
     cx="408.27362"
     cy="297.13754"
     rx="1.5058051"
     ry="2.8893347"
     transform="matrix(0.98202133,-0.18876999,0.06350695,0.9979814,0,0)" />
  <ellipse
     ry="2.8893347"
     rx="1.5058051"
     cy="295.25317"
     cx="450.87689"
     id="ellipse5225"
     style="fill:#ffffff;fill-opacity:1;fill-rule:evenodd;stroke-width:0.458007"
     transform="matrix(0.98202133,-0.18876999,0.06350695,0.9979814,0,0)" />
  <g
     transform="matrix(0.30851722,-0.00159454,9.1743898e-4,0.53621136,370.05696,164.13726)"
     id="g5241"
     style="fill:#1c3842;fill-opacity:1;stroke-width:1.12156">
    <path
       d="m 275.69644,161.86951 a 46.875786,37.942413 0 0 1 -23.10967,33.16233 46.875786,37.942413 0 0 1 -47.03763,0.22902 46.875786,37.942413 0 0 1 -23.60087,-32.9349 h 46.87578 z"
       sodipodi:end="3.1415927"
       sodipodi:start="6.2711549"
       sodipodi:ry="37.942413"
       sodipodi:rx="46.875786"
       sodipodi:cy="162.32596"
       sodipodi:cx="228.82405"
       sodipodi:type="arc"
       id="path5239"
       style="fill:#1c3842;fill-opacity:1;fill-rule:evenodd;stroke-width:1.12156"
       sodipodi:arc-type="slice" />
  </g>
  <g
     transform="matrix(0.30872389,0.04669525,-0.02686681,0.53657055,375.03574,152.8079)"
     id="g5233"
     style="stroke-width:1.1166">
    <path
       style="fill:#ffffff;fill-opacity:1;fill-rule:evenodd;stroke-width:1"
       d="m 213.41016,165.64844 0.8457,18.52148 c 0,0 15.61734,0.91011 15.51562,0.88281 -0.10172,-0.0273 1.46094,-19.25 1.46094,-19.25 l 3.53125,19.41016 15.08789,-2.71484 0.002,-16.75977 -20.28321,0.0371 z m 31.36718,22.06054 -11.08984,1.86719 -0.98633,8.75195 c 4.75225,-0.27457 9.45175,-1.21293 13.89649,-2.79882 z m -28.67578,0.19727 -1.24804,8.30078 c 5.61191,1.71676 11.56181,2.44593 17.45507,2.15039 l -2.73632,-8.54492 z"
       id="path5231"
       transform="matrix(1.1112766,-0.10886876,0.10886876,1.1112766,-45.681486,4.7878447)"
       inkscape:connector-curvature="0" />
  </g>
  <path
     style="fill:#264c59;fill-opacity:0.505556;stroke:none;stroke-width:0.456177px;stroke-linecap:butt;stroke-linejoin:miter;stroke-opacity:1"
     d="m 435.25015,251.51603 0.10263,1.56083 6.02975,-0.75812 0.23093,0.22298 6.28632,-0.40136 -0.0257,-0.8919 z"
     id="path5363"
     inkscape:connector-curvature="0" />
</svg>
