<svg width="800" height="600" xmlns="http://www.w3.org/2000/svg">
 <!-- Created with Method Draw - http://github.com/duopixel/Method-Draw/ -->

 <g id="Layer_1">
  <title>Layer 1</title>
  <path stroke="#000" id="svg_2" d="m655.7314,489.05498l-72.22957,-144.67812c-21.77695,-43.60561 -57.39614,-114.99145 -79.17322,-158.6055l-72.22283,-144.66934c-21.79856,-43.63119 -57.41773,-43.63119 -79.18745,0l-72.2082,144.66934c-21.77695,43.61404 -57.41784,115.01651 -79.18761,158.6055l-72.21556,144.67812c-21.77691,43.64768 -3.95272,79.32366 39.59389,79.32366l447.19347,0c43.5901,0 61.39222,-35.676 39.63705,-79.32366l0.00002,0zm-242.59467,22.39729l-42.83914,0l0,-47.57038l42.83914,0l0,47.57038zm-2.06389,-82.62208l-38.6748,0l-3.84348,-203.53612l46.0188,0l-3.5005,203.53612l-0.00002,0z" opacity="undefined" fill-opacity="null" stroke-opacity="null" stroke-dasharray="null" stroke-width="null" fill="#000000"/>
 </g>
</svg>