<svg width="800" height="600" xmlns="http://www.w3.org/2000/svg">
 <!-- Created with Method Draw - http://github.com/duopixel/Method-Draw/ -->

 <g id="Layer_1">
  <title>Layer 1</title>
  <rect id="svg_2" height="22" width="697" y="536" x="52.5" opacity="undefined" stroke-opacity="null" stroke-dasharray="null" stroke-width="null" stroke="#000" fill="#7f3f00"/>
  <path id="svg_19" d="m684.71913,490.71486c1.27284,-2.06826 4.16996,-2.43552 6.36475,-2.71533c2.44749,0.23117 4.33382,2.23643 5.76874,4.17557c1.66922,1.58498 3.70721,2.92996 4.54263,5.25053c2.11223,1.09998 4.60586,1.68834 5.89878,4.04181c1.9542,2.65493 3.08036,5.86845 4.0992,8.98147c0.16178,2.32068 1.13748,4.43777 1.46984,6.73752c0.56997,2.27997 1.02433,4.53395 1.63847,6.7938c0.68255,2.34945 1.65223,4.58523 2.33171,6.93797c1.24102,2.06471 2.37089,4.24315 3.14138,6.54256c-1.84361,-0.16423 0.17028,2.93027 0.51604,4.15019c0.50412,2.51089 -2.25833,1.07336 -2.7414,-0.08617c-1.70614,1.6963 -5.19911,2.07717 -6.74523,-0.1492c-1.62868,-2.25583 -2.52822,-5.11812 -4.77646,-6.7511c-0.88398,-0.77336 -1.74167,-4.1503 -2.05803,-1.16793c1.12252,2.96725 -3.2951,1.27606 -4.86422,1.80893c-2.81235,-0.5944 1.06762,-2.2838 2.26252,-2.08365c1.12272,-1.17417 2.99116,-3.14068 0.30923,-3.75705c-1.83673,-0.76748 -4.19139,-2.71374 -5.22404,0.18329c-1.29668,0.7209 -3.62062,4.14089 -1.04664,4.39293c1.04011,2.23758 -3.0017,0.61913 -4.1303,1.14838c-1.06409,0.35261 -3.71617,-0.26564 -1.24611,-0.83131c2.12517,-0.36672 3.13841,-3.11033 4.47265,-4.77223c-0.04424,-2.13221 -1.66812,-3.82444 -2.88531,-5.43433c-1.29486,-2.26915 -3.10156,-4.21274 -4.00127,-6.69626c-0.59017,-2.57882 -1.71379,-4.96314 -2.28364,-7.5479c-0.64335,-2.59031 -1.38111,-5.5111 0.00333,-7.99333c0.631,-2.17781 0.89375,-4.20967 -0.43043,-6.00224c-1.82968,-1.56301 -4.43014,-0.93613 -6.53985,-1.97265c-0.25427,-1.67405 3.12352,-2.31279 4.59158,-2.68673c0.55736,-0.02034 0.98397,-0.51033 1.56209,-0.49754l0,0.00001l-0.00001,-0.00001z" opacity="undefined" stroke-opacity="null" stroke-dasharray="null" stroke-width="null" stroke="#000" fill="#000000"/>
  <path fill="#000000" stroke="#000" stroke-width="null" stroke-dasharray="null" stroke-opacity="null" opacity="undefined" d="m234.55045,441.33822c0,0 0,-3.96736 1.64895,-6.53563c0.94491,-1.45094 3.96258,-2.18837 3.96258,-2.18837c0,0 3.24058,-1.06671 7.16759,-0.84013c3.04238,0.17479 6.97623,1.64951 6.97623,1.64951c0,0 4.34673,0.09753 5.83852,2.09098c1.8213,2.4511 -1.05419,5.31011 -1.05419,5.31011c0,0 0.38147,1.66831 1.84859,3.06985c1.20872,1.15221 3.56057,2.10555 3.56057,2.10555c0,0 0.44574,0.28957 0.77941,0.84036c0.29532,0.50262 0.46757,1.28945 0.46757,1.28945c0,0 1.44941,0.94808 1.54925,2.12299c0.11072,1.25608 -1.13081,2.74837 -1.13081,2.74837c0,0 -0.56603,2.32171 -1.59431,3.99787c-0.66314,1.08819 -1.94849,1.78426 -1.94849,1.78426c0,0 -2.94521,2.21234 -6.5427,2.72323c-2.72101,0.38517 -6.35408,-0.89629 -6.35408,-0.89629c0,0 1.86646,5.22339 1.6559,10.54431c0.29824,8.35167 -6.825,15.40167 -9.87221,24.80764c-1.07612,2.83382 -0.41293,6.12763 -0.41293,6.12763c0,0 -0.30902,8.2666 -1.44663,15.62755c-0.9271,6.04895 -2.70736,11.45512 -2.70736,11.45512c0,0 1.08948,3.26749 0.82452,5.37422c0.92341,0.53702 4.87412,2.88702 4.3714,4.76599c-0.75432,0.11853 -2.15086,-0.60813 -2.15086,-0.60813c0,0 -0.63987,0.66679 -1.43025,0.76822c-0.58106,0.07985 -1.12392,0.19345 -1.37829,-0.38958c-1.36182,0.28929 -3.77659,-0.77879 -3.77659,-0.77879c0,0 -1.85817,-1.32291 -2.73465,-2.73094c-0.47447,-0.75491 -1.22299,-0.05555 -0.2516,-2.03515c0.97144,-1.97959 -0.0998,-2.37087 -0.0998,-2.37087c0,0 -2.17136,1.01605 -3.61798,0.95481c-0.71098,-0.03469 -1.24699,-1.1734 -1.24699,-1.1734c0,0 0.26113,-2.37651 0.08883,-4.45936c-0.25428,-2.96312 -0.97628,-5.93685 -0.97628,-5.93685c0,0 -1.73922,-1.82713 -3.09563,-7.06391c-0.93802,-3.61505 -1.03781,-8.68391 -1.69416,-12.41641c-0.65634,-3.79652 -1.97459,-6.29109 -1.86641,-6.23295c-3.161,3.93686 -7.12386,4.87136 -7.12386,4.87136c0,0 0.64677,5.98235 0.10257,10.86024c-0.52236,4.70334 -2.23289,8.30659 -2.23289,8.30659c0,0 -1.80823,4.33866 -2.35045,7.27593c-0.38592,2.09075 0.07705,2.60338 0.42936,3.12306c2.14808,2.45843 11.72555,-2.00657 14.0002,1.20814c0.23383,0.12808 0.7288,0.73071 1.30172,1.07207c0.60846,0.36284 1.81445,2.15519 1.45075,2.35785c-0.30217,0.17602 -0.95167,-0.02402 -0.95167,-0.02402c0,0 0.17498,1.09609 -0.22699,1.4962c-0.42936,0.40801 -1.43025,0.13057 -1.43025,0.13057c0,0 -0.65223,-0.50671 -1.87599,-0.65062c-1.16496,-0.13607 -2.9138,0.09057 -2.9138,0.09057c0,0 -4.75167,-1.69482 -8.94516,1.10958c-2.21144,1.13185 -3.901,1.13886 -6.14074,1.4108c-1.24699,0.15205 -1.81172,-0.79736 -1.81172,-0.79736c0,0 -0.41159,0.53608 -1.23607,1.00011c-0.93936,0.51738 -1.94164,1.28009 -1.94164,1.28009c0,0 0.47035,0.56823 1.22654,0.97079c0.4772,0.24553 1.37825,0.40021 1.37825,0.40021c0,0 3.4806,0.52931 6.76974,-0.49867c0.54558,-0.03201 4.53273,2.06683 5.05096,2.51488c0.39517,0.3361 -0.38521,1.37311 -1.04739,1.64293c-3.3819,1.96183 -5.77627,-0.93652 -11.19304,1.07494c-4.99872,0.59314 -7.06506,-0.07478 -8.73187,-1.25885c-1.10615,-0.7842 -1.19642,-2.45913 -1.19642,-2.45913c0,0 -1.60116,-2.09907 -1.7283,-4.05135c-0.05474,-0.86137 2.11389,-3.92591 3.02045,-5.48875c0.74656,-1.27483 1.62305,-2.83504 1.62305,-2.83504c0,0 0.70006,-1.45084 1.17453,-3.3018c0.35413,-1.34439 0.41978,-2.93111 0.85599,-4.21933c0.52231,-1.57901 1.44936,-2.827 1.44936,-2.827c0,0 -2.50772,-1.94965 -4.42881,-4.39008c-2.3778,-3.03112 -4.25517,-6.66629 -4.25517,-6.66629c0,0 -6.18858,-4.48601 -10.81018,-9.88274c-2.92472,-3.40731 -5.10019,-8.67601 -5.10019,-8.67601c0,0 -1.08383,1.10624 -2.62121,2.50576c-10.92363,9.94417 -11.79796,30.17029 -15.23349,52.08752c-2.23476,14.25665 -7.56826,23.35703 -11.02903,26.30943c-3.15036,2.69103 -7.10332,2.82978 -7.10332,2.82978c0,0 -2.4708,0.03995 -2.75242,-0.45877c-0.27076,-0.46149 1.65992,-1.47232 1.65992,-1.47232c0,0 3.54314,-1.77998 5.76607,-4.59796c9.30853,-11.80015 10.24655,-46.01596 14.41653,-60.5235c2.10733,-7.33158 4.94834,-26.94665 24.77284,-37.65236c14.40585,-7.77953 45.54172,-13.02929 53.34132,-22.734c1.56702,-1.9498 3.26525,-3.96464 3.26525,-3.96464l-0.00004,-0.00007z" id="svg_1"/>
 </g>
</svg>