<svg width="800" height="600" xmlns="http://www.w3.org/2000/svg">
 <!-- Created with Method Draw - http://github.com/duopixel/Method-Draw/ -->
 <g id="Layer_1">
  <title>Layer 1</title>
  <rect transform="rotate(81.44776916503906 448,391.5) " id="svg_17" height="9" width="81" y="387" x="407.5" opacity="undefined" fill-opacity="null" stroke-opacity="null" stroke-dasharray="null" stroke-width="null" stroke="#000" fill="#e5e5e5"/>
  <rect transform="rotate(-73.19447326660156 430.00000000000006,391.50000000000006) " id="svg_16" height="9" width="81" y="387" x="389.5" opacity="undefined" fill-opacity="null" stroke-opacity="null" stroke-dasharray="null" stroke-width="null" stroke="#000" fill="#e5e5e5"/>
  <rect transform="rotate(24.016300201416016 474.99999999999994,294.5000000000001) " id="svg_15" height="9" width="81" y="290" x="434.5" opacity="undefined" fill-opacity="null" stroke-opacity="null" stroke-dasharray="null" stroke-width="null" stroke="#000" fill="#e5e5e5"/>
  <rect id="svg_2" height="22" width="697" y="536" x="52.5" opacity="undefined" stroke-opacity="null" stroke-dasharray="null" stroke-width="null" stroke="#000" fill="#7f3f00"/>
  <rect id="svg_3" height="509" width="24" y="27" x="91.5" opacity="undefined" stroke-opacity="null" stroke-dasharray="null" stroke-width="null" stroke="#000" fill="#7f3f00"/>
  <rect id="svg_4" height="24" width="532" y="53" x="116.5" opacity="undefined" stroke-opacity="null" stroke-dasharray="null" stroke-width="null" stroke="#000" fill="#7f3f00"/>
  <path stroke="#000" id="svg_7" d="m115.70248,75.39499l0,125l134.00005,-125l-134.00005,0z" opacity="undefined" fill-opacity="null" stroke-opacity="null" stroke-dasharray="null" stroke-width="null" fill="#7f3f00"/>
  <rect id="svg_9" height="112" width="4" y="77" x="438.5" opacity="undefined" stroke-opacity="null" stroke-dasharray="null" stroke-width="null" stroke="#000" fill="#7f7f7f"/>
  <path stroke="#000" id="svg_10" d="m422.60552,204.29886c-0.69169,3.40535 -2.45852,6.65988 -2.5775,10.17145c0.1583,2.03319 -1.41049,3.12532 -3.55811,3.08687c-2.30984,2.08181 0.2851,5.37188 2.89863,6.21224c2.66725,1.55669 5.97616,-0.18275 8.61831,1.21366c3.50834,2.38456 4.97299,6.61243 3.76262,10.31893c-1.20344,3.05973 4.95688,1.94693 2.63978,-0.49895c-1.78959,-2.39066 3.3735,-1.60026 2.05172,0.66945c-0.24976,1.82195 1.54565,2.41166 0.74663,4.1768c2.08158,1.0378 -0.17449,1.61888 -1.44237,1.81483c-2.96908,1.2869 0.53705,-2.30527 -1.81506,-3.36777c-2.15394,0.40702 -0.69442,3.54317 -1.43375,3.18095c-1.52203,-1.03627 -1.52091,-4.91059 -4.0754,-2.38264c-0.84781,-3.11488 0.69909,-6.3589 -0.49255,-9.4557c0.48815,-2.31273 -3.71149,-3.11045 -3.18031,-0.42807c0.21175,4.09388 -1.21801,8.1796 -0.39743,12.2533c1.13017,2.51263 4.29109,3.64453 6.27497,5.58346c1.62931,1.49502 3.74156,3.09344 6.27748,2.62275c2.87627,-0.10841 5.75784,-0.33937 8.62113,0.05768c3.60144,0.09876 6.35069,-2.3764 9.42415,-3.64784c3.61309,-2.4945 3.04422,-6.95019 2.68404,-10.49936c-0.44165,-2.19123 0.5275,-4.38345 0.34689,-6.55416c-2.60484,-2.77118 -4.742,2.09973 -3.99997,4.19243c-0.00018,2.63246 0.58124,6.02353 -2.30688,7.73834c-2.38348,-0.05226 -4.65186,0.70049 -7.05372,0.30691c-1.94897,1.00632 -5.10583,0.98048 -5.74915,-1.41509c-0.25684,-2.12743 0.85183,-4.35782 -0.65454,-6.3433c1.32353,0.99113 3.63268,-0.85601 2.34577,1.36605c-1.56966,1.80875 1.32913,4.59591 2.42039,1.92617c0.36205,-1.79124 -1.56606,-4.1686 1.60335,-3.78484c0.64635,0.63182 -2.20724,5.05142 1.69344,3.93454c2.78097,-0.52965 -0.49476,-4.32267 3.27122,-4.33585c1.8226,-1.86566 1.33187,-5.36259 4.11979,-6.77793c3.10852,-1.82911 7.96196,-0.50857 10.18063,-3.60616c1.89111,-1.58515 1.00116,-5.97868 -2.26032,-4.52289c-4.07579,0.34547 -0.84108,-4.7998 -0.9548,-6.72778c0.96033,-1.67921 -1.16624,-5.21394 -0.43397,-5.58896c1.38365,1.84066 1.87922,3.99352 1.58165,6.14463c-0.02557,1.82421 -0.91533,6.76808 2.00148,3.72042c0.98742,-2.12395 0.70024,-4.52971 1.40372,-6.73944c1.35684,-4.77075 -1.07261,-9.54415 -3.78099,-13.58494c-2.30668,-2.17535 -5.23508,-3.90946 -7.98507,-5.61684c-4.62558,-1.51261 -9.73293,-1.78359 -14.61825,-1.40449c-4.32126,0.65126 -8.89098,1.33786 -12.33341,3.89962c-3.35495,1.71879 -6.56801,4.00161 -7.89436,7.30426c-1.15586,2.66061 -3.17991,5.37011 -2.25999,8.32567c0.87977,2.46378 0.41316,5.02251 0.55561,7.54075c1.49975,2.8781 2.9157,-1.47274 2.77535,-2.91185c0.08303,-2.72902 1.73897,-5.1446 2.95916,-7.56728l0,0zm27.54636,5.85476c3.08413,0.19215 6.98912,1.68545 7.07328,4.79867c0.46896,3.1242 -2.43441,6.15255 -6.15515,5.84618c-3.37963,-0.24137 -5.54109,-2.77963 -5.31667,-5.63335c-1.13149,-2.04615 0.62931,-4.2376 2.99246,-4.70797c0.45826,-0.13398 0.9293,-0.23427 1.40608,-0.30353l0,0zm-20.81272,0.2661c3.57782,-0.55324 7.64848,1.37657 7.66042,4.82c0.33603,3.32888 -3.72876,3.98108 -6.50158,4.81501c-1.91867,1.07716 -3.91171,0.07424 -5.50597,-1.01103c-2.06848,-1.88247 -1.4605,-5.67594 0.7236,-7.39432c1.05911,-0.68152 2.3702,-0.94943 3.62353,-1.22966zm12.24279,8.78188c1.73207,2.06991 3.81143,5.22638 1.57149,7.57565c-1.98845,1.38657 -2.23914,-1.97225 -4.32621,-0.39038c-1.95791,-1.49093 -0.15211,-4.52481 1.22168,-6.03941c0.45279,-0.43615 0.97094,-0.82012 1.53305,-1.14586z" opacity="undefined" stroke-opacity="null" stroke-dasharray="null" stroke-width="null" fill="#d61111"/>
  <rect transform="rotate(-29.817590713500977 405.99999999999994,297.49999999999994) " id="svg_14" height="9" width="81" y="293" x="365.5" opacity="undefined" fill-opacity="null" stroke-opacity="null" stroke-dasharray="null" stroke-width="null" stroke="#000" fill="#e5e5e5"/>
  <rect id="svg_13" height="107" width="8" y="250" x="437.5" opacity="undefined" stroke-opacity="null" stroke-dasharray="null" stroke-width="null" stroke="#000" fill="#e5e5e5"/>
  <path id="svg_19" d="m608.71913,8.71486c1.27284,-2.06826 4.16996,-2.43552 6.36475,-2.71533c2.44749,0.23117 4.33382,2.23643 5.76874,4.17557c1.66922,1.58498 3.70721,2.92996 4.54263,5.25053c2.11223,1.09998 4.60586,1.68834 5.89878,4.04181c1.9542,2.65493 3.08036,5.86845 4.0992,8.98147c0.16178,2.32068 1.13748,4.43777 1.46984,6.73752c0.56997,2.27997 1.02433,4.53395 1.63847,6.7938c0.68255,2.34945 1.65223,4.58523 2.33171,6.93797c1.24102,2.06471 2.37089,4.24315 3.14138,6.54256c-1.84361,-0.16423 0.17028,2.93027 0.51604,4.15019c0.50412,2.51089 -2.25833,1.07336 -2.7414,-0.08617c-1.70614,1.6963 -5.19911,2.07717 -6.74523,-0.1492c-1.62868,-2.25583 -2.52822,-5.11812 -4.77646,-6.7511c-0.88398,-0.77336 -1.74167,-4.1503 -2.05803,-1.16793c1.12252,2.96725 -3.2951,1.27606 -4.86422,1.80893c-2.81235,-0.5944 1.06762,-2.2838 2.26252,-2.08365c1.12272,-1.17417 2.99116,-3.14068 0.30923,-3.75705c-1.83673,-0.76748 -4.19139,-2.71374 -5.22404,0.18329c-1.29668,0.7209 -3.62062,4.14089 -1.04664,4.39293c1.04011,2.23758 -3.0017,0.61913 -4.1303,1.14838c-1.06409,0.35261 -3.71617,-0.26564 -1.24611,-0.83131c2.12517,-0.36672 3.13841,-3.11033 4.47265,-4.77223c-0.04424,-2.13221 -1.66812,-3.82444 -2.88531,-5.43433c-1.29486,-2.26915 -3.10156,-4.21274 -4.00127,-6.69626c-0.59017,-2.57882 -1.71379,-4.96314 -2.28364,-7.5479c-0.64335,-2.59031 -1.38111,-5.5111 0.00333,-7.99333c0.631,-2.17781 0.89375,-4.20967 -0.43043,-6.00224c-1.82968,-1.56301 -4.43014,-0.93613 -6.53985,-1.97265c-0.25427,-1.67405 3.12352,-2.31279 4.59158,-2.68673c0.55736,-0.02034 0.98397,-0.51033 1.56209,-0.49754l0,0.00001z" opacity="undefined" stroke-opacity="null" stroke-dasharray="null" stroke-width="null" stroke="#000" fill="#000000"/>
  <path stroke="#000" id="svg_23" d="m347.98255,176.78419c27.33815,0 49.49971,10.07407 49.49971,22.50084c0,4.24408 -2.61998,8.21362 -7.12824,11.60103l7.12824,9.47086l-19.84571,-3.08495c-8.27067,2.82013 -18.51651,4.5122 -29.654,4.5122c-27.33807,0 -49.50031,-10.07413 -49.50031,-22.49914s22.16225,-22.50084 49.50031,-22.50084zm-3.06905,35.22184l6.96162,0l0,-4.04808l-6.96162,0l0,4.04808zm0.33923,-7.03006l6.28315,0l0.62183,-17.32157l-7.47083,0l0.56585,17.32157l0,0z" opacity="undefined" stroke-opacity="null" stroke-dasharray="null" stroke-width="null" fill="#bf0000"/>
 </g>
</svg>