<?xml version="1.0" encoding="UTF-8" standalone="no"?>
<svg
   width="800"
   height="600"
   version="1.1"
   id="svg2890"
   sodipodi:docname="hangman-04.svg"
   inkscape:version="1.2 (dc2aeda, 2022-05-15)"
   xmlns:inkscape="http://www.inkscape.org/namespaces/inkscape"
   xmlns:sodipodi="http://sodipodi.sourceforge.net/DTD/sodipodi-0.dtd"
   xmlns:xlink="http://www.w3.org/1999/xlink"
   xmlns="http://www.w3.org/2000/svg"
   xmlns:svg="http://www.w3.org/2000/svg">
  <defs
     id="defs2894">
    <clipPath
       id="SVGID_2_">
      <use
         xlink:href="#SVGID_1_"
         overflow="visible"
         id="use3861" />
    </clipPath>
    <clipPath
       id="clipPath3949">
      <use
         xlink:href="#SVGID_1_"
         overflow="visible"
         id="use3947" />
    </clipPath>
    <clipPath
       id="clipPath3953">
      <use
         xlink:href="#SVGID_1_"
         overflow="visible"
         id="use3951" />
    </clipPath>
    <clipPath
       id="clipPath3957">
      <use
         xlink:href="#SVGID_1_"
         overflow="visible"
         id="use3955" />
    </clipPath>
    <clipPath
       id="clipPath3961">
      <use
         xlink:href="#SVGID_1_"
         overflow="visible"
         id="use3959" />
    </clipPath>
    <clipPath
       id="clipPath3965">
      <use
         xlink:href="#SVGID_1_"
         overflow="visible"
         id="use3963" />
    </clipPath>
    <clipPath
       id="clipPath3969">
      <use
         xlink:href="#SVGID_1_"
         overflow="visible"
         id="use3967" />
    </clipPath>
    <clipPath
       id="clipPath3973">
      <use
         xlink:href="#SVGID_1_"
         overflow="visible"
         id="use3971" />
    </clipPath>
    <path
       id="SVGID_1_"
       d="m 123.654,154.807 c 0,0 0.211,0.065 0.618,0.192 0.408,0.123 1.014,0.304 1.804,0.54 0.787,0.233 1.758,0.52 2.898,0.857 1.139,0.33 2.447,0.708 3.912,1.131 2.93,0.831 6.475,1.828 10.54,2.903 4.063,1.077 8.641,2.25 13.635,3.426 9.987,2.352 21.626,4.783 34.102,6.598 12.474,1.808 25.786,3.04 39.035,3 1.655,-0.002 3.308,-0.044 4.961,-0.063 l 0.619,-0.009 0.154,-0.002 0.078,-0.001 c 0.067,-0.001 -0.313,0.015 -0.114,0.006 l 0.324,-0.018 1.295,-0.064 c 0.863,-0.041 1.727,-0.081 2.589,-0.122 3.429,-0.185 6.963,-0.237 10.1,-0.573 1.613,-0.126 3.22,-0.251 4.818,-0.376 0.804,-0.065 1.595,-0.09 2.403,-0.187 0.808,-0.094 1.612,-0.187 2.416,-0.28 1.609,-0.175 3.208,-0.35 4.797,-0.523 0.794,-0.091 1.589,-0.161 2.376,-0.26 0.786,-0.113 1.568,-0.225 2.347,-0.337 1.563,-0.217 3.111,-0.432 4.646,-0.646 0.767,-0.109 1.536,-0.197 2.293,-0.322 0.757,-0.128 1.51,-0.256 2.259,-0.383 2.99,-0.536 5.957,-0.927 8.795,-1.535 2.848,-0.569 5.651,-1.037 8.318,-1.666 1.345,-0.289 2.666,-0.573 3.962,-0.851 1.31,-0.249 2.554,-0.615 3.805,-0.887 1.247,-0.293 2.468,-0.58 3.661,-0.859 1.195,-0.282 2.337,-0.626 3.478,-0.9 1.137,-0.289 2.244,-0.571 3.319,-0.844 1.068,-0.3 2.102,-0.603 3.116,-0.872 1.01,-0.278 1.996,-0.536 2.938,-0.809 0.935,-0.289 1.843,-0.555 2.721,-0.805 1.761,-0.489 3.346,-1.017 4.804,-1.452 2.902,-0.9 5.18,-1.658 6.74,-2.18 0.78,-0.266 1.378,-0.471 1.78,-0.608 0.402,-0.144 0.61,-0.219 0.61,-0.219 0,0 -0.644,0.606 -1.923,1.664 -0.646,0.514 -1.432,1.183 -2.399,1.89 -0.96,0.72 -2.064,1.563 -3.346,2.427 -1.268,0.89 -2.691,1.853 -4.273,2.838 -0.787,0.504 -1.611,1.022 -2.473,1.549 -0.865,0.52 -1.772,1.032 -2.706,1.577 -0.934,0.546 -1.905,1.096 -2.912,1.652 -1.017,0.532 -2.063,1.08 -3.136,1.642 -1.076,0.562 -2.184,1.139 -3.334,1.685 -1.154,0.54 -2.336,1.092 -3.543,1.656 -2.407,1.161 -4.98,2.194 -7.648,3.278 -2.656,1.127 -5.473,2.078 -8.363,3.101 -0.724,0.253 -1.452,0.507 -2.186,0.764 -0.734,0.257 -1.487,0.461 -2.237,0.696 -1.508,0.45 -3.034,0.906 -4.577,1.367 -0.773,0.229 -1.551,0.458 -2.333,0.688 -0.785,0.216 -1.582,0.396 -2.38,0.597 -1.6,0.389 -3.213,0.78 -4.842,1.176 -0.815,0.194 -1.635,0.389 -2.457,0.584 -0.824,0.186 -1.661,0.328 -2.497,0.489 -1.674,0.313 -3.361,0.627 -5.059,0.944 -3.362,0.688 -6.948,1.044 -10.495,1.518 -3.636,0.511 -6.979,0.689 -10.438,0.934 -0.86,0.06 -1.723,0.118 -2.585,0.178 l -1.294,0.085 -0.324,0.02 -0.36,0.015 -0.169,0.004 -0.679,0.016 c -1.809,0.033 -3.619,0.097 -5.428,0.102 -7.239,0.012 -14.451,-0.49 -21.477,-1.377 -7.026,-0.886 -13.861,-2.186 -20.374,-3.774 -13.032,-3.174 -24.747,-7.509 -34.402,-11.942 -4.831,-2.217 -9.159,-4.44 -12.918,-6.544 -3.759,-2.106 -6.955,-4.075 -9.531,-5.782 -1.291,-0.849 -2.429,-1.628 -3.404,-2.328 -0.981,-0.691 -1.8,-1.303 -2.459,-1.804 -0.661,-0.497 -1.153,-0.902 -1.488,-1.168 -0.332,-0.277 -0.503,-0.417 -0.503,-0.417 z" />
  </defs>
  <sodipodi:namedview
     id="namedview2892"
     pagecolor="#505050"
     bordercolor="#eeeeee"
     borderopacity="1"
     inkscape:showpageshadow="0"
     inkscape:pageopacity="0"
     inkscape:pagecheckerboard="0"
     inkscape:deskcolor="#505050"
     showgrid="false"
     inkscape:zoom="1.1583333"
     inkscape:cx="380.28778"
     inkscape:cy="298.27339"
     inkscape:window-width="1367"
     inkscape:window-height="915"
     inkscape:window-x="0"
     inkscape:window-y="25"
     inkscape:window-maximized="0"
     inkscape:current-layer="svg2890" />
  <!-- Created with Method Draw - http://github.com/duopixel/Method-Draw/ -->
  <rect
     id="svg_2"
     height="22"
     width="697"
     y="536"
     x="52.5"
     stroke="#000000"
     fill="#7f3f00" />
  <rect
     id="svg_3"
     height="509"
     width="24"
     y="27"
     x="91.5"
     stroke="#000000"
     fill="#7f3f00" />
  <rect
     id="svg_4"
     height="24"
     width="532"
     y="53"
     x="116.5"
     stroke="#000000"
     fill="#7f3f00" />
  <path
     stroke="#000000"
     id="svg_7"
     d="m 115.70248,75.39499 v 125 l 134.00005,-125 z"
     fill="#7f3f00" />
  <rect
     id="svg_9"
     height="112"
     width="4"
     y="77"
     x="438.5"
     stroke="#000000"
     fill="#7f7f7f" />
  <path
     id="svg_19"
     d="m 219.24515,7.8105425 c -1.05013,-2.0716824 -3.44034,-2.4395501 -5.2511,-2.7198231 -2.01926,0.2315525 -3.57554,2.2401307 -4.75939,4.1824794 -1.37715,1.5876032 -3.05856,2.9348082 -3.7478,5.2592182 -1.74266,1.101801 -3.79998,1.691134 -4.86667,4.048498 -1.61228,2.659324 -2.54139,5.878161 -3.38197,8.996332 -0.13347,2.32452 -0.93845,4.445114 -1.21266,6.748669 -0.47024,2.283743 -0.8451,4.541452 -1.35178,6.805042 -0.56313,2.353338 -1.36314,4.592817 -1.92373,6.94945 -1.02388,2.068127 -1.95606,4.250172 -2.59174,6.553386 1.52104,-0.164501 -0.14048,2.935119 -0.42575,4.157058 -0.41591,2.515045 1.86319,1.075136 2.26174,-0.08631 1.40762,1.699107 4.28942,2.080607 5.56502,-0.149447 1.34371,-2.259562 2.08585,-5.126589 3.94072,-6.762271 0.72931,-0.774639 1.43693,-4.157167 1.69794,-1.169862 -0.92612,2.97216 2.71855,1.278171 4.01312,1.811923 2.32028,-0.595384 -0.88082,-2.287579 -1.86664,-2.087098 -0.92628,-1.176113 -2.4678,-3.145877 -0.25513,-3.763267 1.51536,-0.76875 3.45802,-2.71823 4.30999,0.183593 1.0698,0.722093 2.98712,4.147742 0.86351,4.4002 -0.85812,2.241282 2.47649,0.620154 3.40762,1.15028 0.87791,0.353193 3.06595,-0.26608 1.02808,-0.832686 -1.75333,-0.367327 -2.58928,-3.115477 -3.69007,-4.780127 0.0365,-2.135738 1.37625,-3.830768 2.38047,-5.443322 1.0683,-2.272905 2.55888,-4.219711 3.30116,-6.70734 0.48691,-2.583088 1.41393,-4.971353 1.88408,-7.56039 0.53078,-2.594596 1.13945,-5.520219 -0.002,-8.006557 -0.52059,-2.181413 -0.73737,-4.216636 0.35512,-6.012172 1.50954,-1.565596 3.655,-0.937679 5.39557,-1.975914 0.20978,-1.6768205 -2.577,-2.3166174 -3.78819,-2.6911762 -0.45984,-0.020374 -0.81181,-0.5111744 -1.28877,-0.4983633 v 1e-5 z"
     stroke="#000000"
     fill="#000000"
     style="stroke-width:0.909063" />
</svg>
