<?xml version="1.0" encoding="UTF-8" standalone="no"?>
<svg
   width="800"
   height="600"
   version="1.1"
   id="svg2890"
   sodipodi:docname="hangman-08.svg"
   inkscape:version="1.2 (dc2aeda, 2022-05-15)"
   xmlns:inkscape="http://www.inkscape.org/namespaces/inkscape"
   xmlns:sodipodi="http://sodipodi.sourceforge.net/DTD/sodipodi-0.dtd"
   xmlns:xlink="http://www.w3.org/1999/xlink"
   xmlns="http://www.w3.org/2000/svg"
   xmlns:svg="http://www.w3.org/2000/svg">
  <defs
     id="defs2894">
    <clipPath
       id="SVGID_2_">
      <use
         xlink:href="#SVGID_1_"
         overflow="visible"
         id="use3861" />
    </clipPath>
    <clipPath
       id="clipPath3949">
      <use
         xlink:href="#SVGID_1_"
         overflow="visible"
         id="use3947" />
    </clipPath>
    <clipPath
       id="clipPath3953">
      <use
         xlink:href="#SVGID_1_"
         overflow="visible"
         id="use3951" />
    </clipPath>
    <clipPath
       id="clipPath3957">
      <use
         xlink:href="#SVGID_1_"
         overflow="visible"
         id="use3955" />
    </clipPath>
    <clipPath
       id="clipPath3961">
      <use
         xlink:href="#SVGID_1_"
         overflow="visible"
         id="use3959" />
    </clipPath>
    <clipPath
       id="clipPath3965">
      <use
         xlink:href="#SVGID_1_"
         overflow="visible"
         id="use3963" />
    </clipPath>
    <clipPath
       id="clipPath3969">
      <use
         xlink:href="#SVGID_1_"
         overflow="visible"
         id="use3967" />
    </clipPath>
    <clipPath
       id="clipPath3973">
      <use
         xlink:href="#SVGID_1_"
         overflow="visible"
         id="use3971" />
    </clipPath>
    <path
       id="SVGID_1_"
       d="m 123.654,154.807 c 0,0 0.211,0.065 0.618,0.192 0.408,0.123 1.014,0.304 1.804,0.54 0.787,0.233 1.758,0.52 2.898,0.857 1.139,0.33 2.447,0.708 3.912,1.131 2.93,0.831 6.475,1.828 10.54,2.903 4.063,1.077 8.641,2.25 13.635,3.426 9.987,2.352 21.626,4.783 34.102,6.598 12.474,1.808 25.786,3.04 39.035,3 1.655,-0.002 3.308,-0.044 4.961,-0.063 l 0.619,-0.009 0.154,-0.002 0.078,-0.001 c 0.067,-0.001 -0.313,0.015 -0.114,0.006 l 0.324,-0.018 1.295,-0.064 c 0.863,-0.041 1.727,-0.081 2.589,-0.122 3.429,-0.185 6.963,-0.237 10.1,-0.573 1.613,-0.126 3.22,-0.251 4.818,-0.376 0.804,-0.065 1.595,-0.09 2.403,-0.187 0.808,-0.094 1.612,-0.187 2.416,-0.28 1.609,-0.175 3.208,-0.35 4.797,-0.523 0.794,-0.091 1.589,-0.161 2.376,-0.26 0.786,-0.113 1.568,-0.225 2.347,-0.337 1.563,-0.217 3.111,-0.432 4.646,-0.646 0.767,-0.109 1.536,-0.197 2.293,-0.322 0.757,-0.128 1.51,-0.256 2.259,-0.383 2.99,-0.536 5.957,-0.927 8.795,-1.535 2.848,-0.569 5.651,-1.037 8.318,-1.666 1.345,-0.289 2.666,-0.573 3.962,-0.851 1.31,-0.249 2.554,-0.615 3.805,-0.887 1.247,-0.293 2.468,-0.58 3.661,-0.859 1.195,-0.282 2.337,-0.626 3.478,-0.9 1.137,-0.289 2.244,-0.571 3.319,-0.844 1.068,-0.3 2.102,-0.603 3.116,-0.872 1.01,-0.278 1.996,-0.536 2.938,-0.809 0.935,-0.289 1.843,-0.555 2.721,-0.805 1.761,-0.489 3.346,-1.017 4.804,-1.452 2.902,-0.9 5.18,-1.658 6.74,-2.18 0.78,-0.266 1.378,-0.471 1.78,-0.608 0.402,-0.144 0.61,-0.219 0.61,-0.219 0,0 -0.644,0.606 -1.923,1.664 -0.646,0.514 -1.432,1.183 -2.399,1.89 -0.96,0.72 -2.064,1.563 -3.346,2.427 -1.268,0.89 -2.691,1.853 -4.273,2.838 -0.787,0.504 -1.611,1.022 -2.473,1.549 -0.865,0.52 -1.772,1.032 -2.706,1.577 -0.934,0.546 -1.905,1.096 -2.912,1.652 -1.017,0.532 -2.063,1.08 -3.136,1.642 -1.076,0.562 -2.184,1.139 -3.334,1.685 -1.154,0.54 -2.336,1.092 -3.543,1.656 -2.407,1.161 -4.98,2.194 -7.648,3.278 -2.656,1.127 -5.473,2.078 -8.363,3.101 -0.724,0.253 -1.452,0.507 -2.186,0.764 -0.734,0.257 -1.487,0.461 -2.237,0.696 -1.508,0.45 -3.034,0.906 -4.577,1.367 -0.773,0.229 -1.551,0.458 -2.333,0.688 -0.785,0.216 -1.582,0.396 -2.38,0.597 -1.6,0.389 -3.213,0.78 -4.842,1.176 -0.815,0.194 -1.635,0.389 -2.457,0.584 -0.824,0.186 -1.661,0.328 -2.497,0.489 -1.674,0.313 -3.361,0.627 -5.059,0.944 -3.362,0.688 -6.948,1.044 -10.495,1.518 -3.636,0.511 -6.979,0.689 -10.438,0.934 -0.86,0.06 -1.723,0.118 -2.585,0.178 l -1.294,0.085 -0.324,0.02 -0.36,0.015 -0.169,0.004 -0.679,0.016 c -1.809,0.033 -3.619,0.097 -5.428,0.102 -7.239,0.012 -14.451,-0.49 -21.477,-1.377 -7.026,-0.886 -13.861,-2.186 -20.374,-3.774 -13.032,-3.174 -24.747,-7.509 -34.402,-11.942 -4.831,-2.217 -9.159,-4.44 -12.918,-6.544 -3.759,-2.106 -6.955,-4.075 -9.531,-5.782 -1.291,-0.849 -2.429,-1.628 -3.404,-2.328 -0.981,-0.691 -1.8,-1.303 -2.459,-1.804 -0.661,-0.497 -1.153,-0.902 -1.488,-1.168 -0.332,-0.277 -0.503,-0.417 -0.503,-0.417 z" />
  </defs>
  <sodipodi:namedview
     id="namedview2892"
     pagecolor="#505050"
     bordercolor="#eeeeee"
     borderopacity="1"
     inkscape:showpageshadow="0"
     inkscape:pageopacity="0"
     inkscape:pagecheckerboard="0"
     inkscape:deskcolor="#505050"
     showgrid="false"
     inkscape:zoom="1.1583333"
     inkscape:cx="380.28778"
     inkscape:cy="298.27339"
     inkscape:window-width="1367"
     inkscape:window-height="915"
     inkscape:window-x="0"
     inkscape:window-y="25"
     inkscape:window-maximized="0"
     inkscape:current-layer="svg2890" />
  <!-- Created with Method Draw - http://github.com/duopixel/Method-Draw/ -->
  <rect
     id="svg_2"
     height="22"
     width="697"
     y="536"
     x="52.5"
     stroke="#000000"
     fill="#7f3f00" />
  <rect
     id="svg_3"
     height="509"
     width="24"
     y="27"
     x="91.5"
     stroke="#000000"
     fill="#7f3f00" />
  <rect
     id="svg_4"
     height="24"
     width="532"
     y="53"
     x="116.5"
     stroke="#000000"
     fill="#7f3f00" />
  <path
     stroke="#000000"
     id="svg_7"
     d="m 115.70248,75.39499 v 125 l 134.00005,-125 z"
     fill="#7f3f00" />
  <rect
     id="svg_9"
     height="112"
     width="4"
     y="77"
     x="438.5"
     stroke="#000000"
     fill="#7f7f7f" />
  <path
     id="svg_19"
     d="m 608.71913,8.71486 c 1.27284,-2.06826 4.16996,-2.43552 6.36475,-2.71533 2.44749,0.23117 4.33382,2.23643 5.76874,4.17557 1.66922,1.58498 3.70721,2.92996 4.54263,5.25053 2.11223,1.09998 4.60586,1.68834 5.89878,4.04181 1.9542,2.65493 3.08036,5.86845 4.0992,8.98147 0.16178,2.32068 1.13748,4.43777 1.46984,6.73752 0.56997,2.27997 1.02433,4.53395 1.63847,6.7938 0.68255,2.34945 1.65223,4.58523 2.33171,6.93797 1.24102,2.06471 2.37089,4.24315 3.14138,6.54256 -1.84361,-0.16423 0.17028,2.93027 0.51604,4.15019 0.50412,2.51089 -2.25833,1.07336 -2.7414,-0.08617 -1.70614,1.6963 -5.19911,2.07717 -6.74523,-0.1492 -1.62868,-2.25583 -2.52822,-5.11812 -4.77646,-6.7511 -0.88398,-0.77336 -1.74167,-4.1503 -2.05803,-1.16793 1.12252,2.96725 -3.2951,1.27606 -4.86422,1.80893 -2.81235,-0.5944 1.06762,-2.2838 2.26252,-2.08365 1.12272,-1.17417 2.99116,-3.14068 0.30923,-3.75705 -1.83673,-0.76748 -4.19139,-2.71374 -5.22404,0.18329 -1.29668,0.7209 -3.62062,4.14089 -1.04664,4.39293 1.04011,2.23758 -3.0017,0.61913 -4.1303,1.14838 -1.06409,0.35261 -3.71617,-0.26564 -1.24611,-0.83131 2.12517,-0.36672 3.13841,-3.11033 4.47265,-4.77223 -0.0442,-2.13221 -1.66812,-3.82444 -2.88531,-5.43433 -1.29486,-2.26915 -3.10156,-4.21274 -4.00127,-6.69626 -0.59017,-2.57882 -1.71379,-4.96314 -2.28364,-7.5479 -0.64335,-2.59031 -1.38111,-5.5111 0.003,-7.99333 0.631,-2.17781 0.89375,-4.20967 -0.43043,-6.00224 -1.82968,-1.56301 -4.43014,-0.93613 -6.53985,-1.97265 -0.25427,-1.67405 3.12352,-2.31279 4.59158,-2.68673 0.55736,-0.02034 0.98397,-0.51033 1.56209,-0.49754 v 10e-6 z"
     stroke="#000000"
     fill="#000000" />
  <g
     id="g88"
     transform="matrix(0.34602297,0,0,0.60139737,359.35235,150.95398)">
    <path
       style="fill:#006068"
       inkscape:connector-curvature="0"
       id="path86"
       d="m 165.73,356.086 c 0,0 23.72,20.159 71.354,18.235 47.636,-1.924 60.666,-21.842 60.666,-21.842 0,0 -106.236,-19.918 -132.02,3.607 z" />
  </g>
  <g
     id="g92"
     transform="matrix(0.34602297,0,0,0.60139737,359.35235,150.95398)">
    <path
       style="fill:#ffc843"
       inkscape:connector-curvature="0"
       id="path90"
       d="m 464.846,155.719 c 0,0 0.24,27.416 -8.177,39.921 l 9.859,2.405 c 0,0 15.32,-20.442 14.755,-39.681 0,0.001 -3.932,-4.328 -16.437,-2.645 z" />
  </g>
  <g
     id="g96"
     transform="matrix(0.34602297,0,0,0.60139737,359.35235,150.95398)">
    <path
       style="fill:#ffc843"
       inkscape:connector-curvature="0"
       id="path94"
       d="m 490.337,166.541 c 0,0 11.063,0.722 13.948,5.291 0,0 -3.638,29.035 -27.175,35.592 l -6.493,-9.379 c 0,0 15.391,-12.986 19.72,-31.504 z" />
  </g>
  <g
     id="g100"
     transform="matrix(0.34602297,0,0,0.60139737,359.35235,150.95398)">
    <path
       style="fill:#ffc843"
       inkscape:connector-curvature="0"
       id="path98"
       d="m 477.832,209.348 c 0,0 22.124,5.05 35.832,-11.303 0,0 4.569,9.859 0,19.238 0,0 -18.277,12.024 -39.921,1.203 z" />
  </g>
  <g
     id="g104"
     transform="matrix(0.34602297,0,0,0.60139737,359.35235,150.95398)">
    <path
       style="fill:#ffc843"
       inkscape:connector-curvature="0"
       id="path102"
       d="m 433.822,180.97 c 0,0 6.493,13.227 15.632,19.72 l -1.202,9.834 c 0,0 -13.708,2.432 -26.214,-19.213 0,0 2.165,-6.974 11.784,-10.341 z" />
  </g>
  <g
     id="g110"
     transform="matrix(0.34602297,0,0,0.60139737,359.35235,150.95398)">
    <g
       id="g108">
      <path
         style="fill:#ffc843"
         inkscape:connector-curvature="0"
         id="path106"
         d="m 363.311,285.188 c -20.549,0 -37.029,-6.863 -48.579,-13.961 -18.392,-11.304 -28.312,-25.428 -28.725,-26.022 l 11.847,-8.238 c 0.087,0.124 8.909,12.56 24.892,22.248 20.954,12.7 43.959,14.982 68.379,6.782 16.99,-5.706 40.086,-16.188 53.622,-33.726 7.903,-10.239 8.818,-18.211 8.826,-18.29 l -0.008,0.09 14.385,1.136 c -0.133,1.687 -4.045,41.57 -72.231,64.469 -11.679,3.921 -22.517,5.512 -32.408,5.512 z" />
    </g>
  </g>
  <g
     id="g122"
     transform="matrix(0.34602297,0,0,0.60139737,359.35235,150.95398)">
    <g
       id="g120">
      <g
         id="g114">
        <path
           style="fill:#ffc843"
           inkscape:connector-curvature="0"
           id="path112"
           d="m 102.035,387.828 h -14.43 c 0,-32.266 5.148,-60.406 15.304,-83.643 8.257,-18.896 19.81,-34.598 34.338,-46.674 24.922,-20.717 49.862,-23.488 50.912,-23.596 l 0.738,7.183 0.761,7.168 c -0.22,0.024 -22.226,2.621 -43.807,20.859 -12.631,10.674 -22.709,24.596 -29.956,41.38 -9.197,21.3 -13.86,47.315 -13.86,77.323 z" />
      </g>
      <g
         id="g118">
        <path
           style="fill:#d49000"
           inkscape:connector-curvature="0"
           id="path116"
           d="m 102.035,387.828 -14.43,0.12 -0.12,0.001 v -0.121 l 0.029,-6.28 c 0.058,-2.094 0.089,-4.188 0.167,-6.28 0.171,-4.185 0.404,-8.368 0.771,-12.542 0.188,-2.087 0.361,-4.176 0.618,-6.256 l 0.355,-3.123 0.428,-3.114 c 0.564,-4.154 1.312,-8.282 2.12,-12.396 0.432,-2.052 0.878,-4.102 1.354,-6.145 l 0.759,-3.054 0.383,-1.525 0.422,-1.516 0.845,-3.032 0.926,-3.008 c 0.595,-2.014 1.312,-3.987 1.984,-5.976 1.438,-3.945 2.926,-7.87 4.725,-11.681 l 1.32,-2.848 c 0.454,-0.944 0.848,-1.91 1.367,-2.831 l 2.964,-5.579 c 1.051,-1.821 2.171,-3.601 3.256,-5.402 l 0.823,-1.344 0.896,-1.299 1.791,-2.596 0.896,-1.299 c 0.297,-0.434 0.592,-0.868 0.926,-1.276 l 1.94,-2.487 1.94,-2.487 c 0.666,-0.813 1.383,-1.586 2.071,-2.38 1.408,-1.563 2.733,-3.203 4.262,-4.654 l 2.228,-2.236 c 0.745,-0.743 1.469,-1.509 2.274,-2.187 1.584,-1.396 3.125,-2.798 4.746,-4.188 l 2.463,-1.946 1.231,-0.973 c 0.409,-0.326 0.817,-0.652 1.256,-0.95 3.424,-2.479 6.912,-4.845 10.573,-6.927 l 2.741,-1.567 2.808,-1.447 1.403,-0.724 1.434,-0.665 2.868,-1.322 c 3.872,-1.659 7.823,-3.137 11.859,-4.354 2.02,-0.605 4.057,-1.153 6.118,-1.608 2.063,-0.468 4.124,-0.863 6.261,-1.112 l 0.704,-0.082 0.074,0.715 1.48,14.351 0.069,0.666 -0.68,0.093 c -1.786,0.243 -3.629,0.624 -5.423,1.059 -0.903,0.213 -1.796,0.468 -2.694,0.7 l -2.67,0.796 c -3.543,1.122 -7.007,2.488 -10.396,4.016 l -2.526,1.183 c -0.833,0.412 -1.652,0.854 -2.479,1.279 -1.668,0.824 -3.245,1.815 -4.863,2.731 -0.808,0.461 -1.57,0.996 -2.357,1.49 -0.777,0.51 -1.573,0.992 -2.336,1.525 l -2.267,1.625 c -0.756,0.543 -1.522,1.071 -2.236,1.668 l -2.18,1.74 -1.074,0.86 -1.045,0.938 -2.09,1.876 c -0.688,0.633 -1.418,1.231 -2.047,1.909 -1.297,1.327 -2.612,2.634 -3.895,3.977 l -3.676,4.203 c -1.182,1.438 -2.293,2.933 -3.444,4.396 -0.28,0.372 -0.581,0.729 -0.846,1.111 l -0.791,1.151 -1.581,2.305 c -1.093,1.511 -2.023,3.127 -2.993,4.719 l -1.45,2.391 c -0.451,0.815 -0.881,1.643 -1.322,2.463 -1.823,3.253 -3.357,6.666 -4.907,10.046 -0.71,1.73 -1.475,3.448 -2.11,5.195 l -0.993,2.613 -0.915,2.646 c -0.637,1.756 -1.151,3.552 -1.721,5.33 -0.536,1.789 -1.032,3.59 -1.527,5.391 -0.926,3.619 -1.811,7.252 -2.526,10.921 l -0.547,2.75 -0.478,2.763 c -0.337,1.84 -0.6,3.691 -0.872,5.541 -0.54,3.701 -0.956,7.42 -1.313,11.145 -0.178,1.862 -0.302,3.729 -0.454,5.594 l -0.333,5.604 -0.219,5.61 z m 0,0 0.008,-5.617 0.123,-5.616 c 0.08,-1.871 0.152,-3.743 0.252,-5.613 0.13,-1.869 0.23,-3.739 0.384,-5.606 0.311,-3.734 0.681,-7.465 1.174,-11.181 0.25,-1.857 0.489,-3.717 0.805,-5.565 l 0.443,-2.777 0.515,-2.765 c 0.672,-3.69 1.505,-7.351 2.415,-10.991 0.482,-1.813 0.968,-3.626 1.491,-5.428 0.56,-1.791 1.063,-3.601 1.688,-5.371 l 0.9,-2.669 0.981,-2.645 c 0.632,-1.777 1.378,-3.488 2.076,-5.227 1.543,-3.438 3.056,-6.873 4.869,-10.171 0.439,-0.832 0.866,-1.67 1.315,-2.495 l 1.443,-2.423 c 0.966,-1.613 1.894,-3.252 2.984,-4.786 l 1.579,-2.34 0.79,-1.169 c 0.265,-0.389 0.565,-0.752 0.846,-1.129 1.151,-1.489 2.264,-3.01 3.447,-4.472 l 3.692,-4.275 c 1.3,-1.368 2.637,-2.705 3.955,-4.058 0.646,-0.697 1.365,-1.289 2.054,-1.925 l 2.085,-1.882 1.043,-0.94 1.114,-0.899 2.204,-1.77 c 0.723,-0.605 1.497,-1.143 2.261,-1.694 l 2.293,-1.652 c 0.771,-0.542 1.575,-1.034 2.362,-1.552 0.796,-0.504 1.568,-1.047 2.386,-1.517 1.637,-0.933 3.233,-1.94 4.921,-2.78 0.837,-0.434 1.665,-0.884 2.509,-1.304 L 168,254.319 c 3.432,-1.558 6.941,-2.952 10.536,-4.101 l 2.711,-0.816 c 0.913,-0.238 1.82,-0.499 2.739,-0.72 1.843,-0.448 3.67,-0.836 5.595,-1.103 l -0.61,0.759 -1.519,-14.352 0.777,0.633 c -2.02,0.24 -4.075,0.637 -6.092,1.101 -2.023,0.453 -4.029,0.998 -6.021,1.586 -3.981,1.19 -7.884,2.639 -11.71,4.267 l -2.836,1.298 -1.416,0.653 -1.389,0.711 -2.776,1.422 -2.712,1.541 c -1.829,0.993 -3.558,2.153 -5.319,3.259 -0.891,0.541 -1.732,1.146 -2.577,1.746 l -2.542,1.794 c -0.429,0.289 -0.838,0.615 -1.249,0.94 l -1.233,0.97 -2.469,1.939 c -1.557,1.331 -3.118,2.741 -4.678,4.108 -0.799,0.668 -1.517,1.424 -2.255,2.156 l -2.208,2.206 c -1.516,1.43 -2.829,3.05 -4.226,4.593 -0.685,0.784 -1.396,1.546 -2.057,2.349 l -1.927,2.457 -1.927,2.457 c -0.332,0.402 -0.625,0.833 -0.92,1.262 l -0.89,1.283 -1.78,2.566 -0.891,1.283 -0.818,1.331 c -1.08,1.78 -2.19,3.545 -3.249,5.336 l -2.97,5.486 c -0.518,0.9 -0.923,1.873 -1.383,2.812 l -1.343,2.837 c -1.806,3.746 -3.32,7.648 -4.777,11.553 -0.683,1.971 -1.411,3.927 -2.017,5.925 l -0.944,2.984 -0.863,3.01 -0.432,1.505 -0.394,1.515 -0.778,3.033 c -0.488,2.03 -0.948,4.067 -1.395,6.107 -0.838,4.092 -1.61,8.199 -2.21,12.335 l -0.466,3.099 -0.393,3.11 c -0.283,2.07 -0.481,4.151 -0.696,6.23 -0.418,4.16 -0.703,8.333 -0.927,12.51 -0.104,2.088 -0.162,4.18 -0.245,6.269 l -0.108,6.274 -0.12,-0.119 z" />
      </g>
    </g>
  </g>
  <g
     id="g126"
     transform="matrix(0.34602297,0,0,0.60139737,359.35235,150.95398)">
    <circle
       style="fill:#264c59"
       id="circle124"
       r="16.353001"
       cy="241.092"
       cx="285.68201" />
  </g>
  <g
     id="g130"
     transform="matrix(0.34602297,0,0,0.60139737,359.35235,150.95398)">
    <circle
       style="fill:#264c59"
       id="circle128"
       r="16.353001"
       cy="241.092"
       cx="186.89999" />
  </g>
  <path
     d="m 436.23624,282.66963 c 0,0 -19.5375,-2.92159 -19.5375,82.43353 0,0 30.20539,9.54538 45.68231,-2.16864 0,0 4.29449,-80.26429 -16.32537,-80.26429 h -9.81944 z"
     id="path168"
     inkscape:connector-curvature="0"
     style="fill:#008996;stroke-width:0.456177" />
  <g
     id="g174"
     transform="matrix(0.34602297,0,0,0.60139737,359.35235,150.95398)">
    <path
       style="fill:#264c59"
       inkscape:connector-curvature="0"
       id="path172"
       d="M 216.95,200.979 V 221.9 c 0,0 21.115,9.378 37.95,-2.886 V 196.65 Z" />
  </g>
  <g
     id="g178"
     transform="matrix(0.34602297,0,0,0.60139737,359.35235,150.95398)">
    <path
       style="fill:#ffc843"
       inkscape:connector-curvature="0"
       id="path176"
       d="m 83.799,394.232 c 0,0 -15.712,4.489 -22.125,34.31 l 11.063,5.771 c 0,0 3.046,-23.086 14.91,-32.385 z" />
  </g>
  <g
     id="g182"
     transform="matrix(0.34602297,0,0,0.60139737,359.35235,150.95398)">
    <path
       style="fill:#ffc843"
       inkscape:connector-curvature="0"
       id="path180"
       d="m 87.646,404.252 c 0,0 -11.624,8.898 -12.986,43.769 l 12.986,5.771 c 0,0 -3.768,-31.263 6.573,-47.376 z" />
  </g>
  <g
     id="g186"
     transform="matrix(0.34602297,0,0,0.60139737,359.35235,150.95398)">
    <path
       style="fill:#ffc843"
       inkscape:connector-curvature="0"
       id="path184"
       d="m 105.522,402.088 c 0,0 -2.164,29.099 7.937,51.704 0,0 -7.215,6.975 -15.151,6.734 0,0 -10.821,-36.313 -2.886,-56.274 z" />
  </g>
  <g
     id="g190"
     transform="matrix(0.34602297,0,0,0.60139737,359.35235,150.95398)">
    <path
       style="fill:#ffc843"
       inkscape:connector-curvature="0"
       id="path188"
       d="m 109.37,391.025 c 0,0 7.455,-1.203 20.923,16.353 l -7.215,9.62 c 0,0 -3.367,-12.746 -16.834,-18.037 z" />
  </g>
  <g
     id="g194"
     transform="matrix(0.34602297,0,0,0.60139737,359.35235,150.95398)">
    <path
       style="fill:#006068"
       inkscape:connector-curvature="0"
       id="path192"
       d="m 111.877,392.015 c 1.095,7.089 -4.888,15.479 -13.201,16.763 -8.313,1.284 -17.481,-1.613 -18.581,-10.51 -0.88,-7.118 2.448,-12.533 12.735,-14.705 10.266,-2.168 17.952,1.364 19.047,8.452 z" />
  </g>
  <g
     id="g198"
     transform="matrix(0.34602297,0,0,0.60139737,359.35235,150.95398)">
    <path
       style="fill:#006068"
       inkscape:connector-curvature="0"
       id="path196"
       d="m 73.434,402.088 c 0,0 0.69,0.2 1.633,0.692 0.475,0.24 1.008,0.558 1.56,0.931 0.267,0.198 0.559,0.383 0.828,0.609 0.273,0.22 0.55,0.445 0.809,0.693 0.264,0.242 0.52,0.494 0.752,0.763 0.248,0.253 0.451,0.542 0.656,0.812 0.217,0.26 0.366,0.563 0.528,0.828 0.17,0.261 0.26,0.557 0.37,0.803 0.12,0.243 0.146,0.51 0.205,0.72 0.021,0.108 0.054,0.206 0.061,0.302 0.004,0.098 0.006,0.186 0.009,0.267 0.007,0.317 -0.001,0.49 -0.001,0.49 0,0 -0.075,-0.169 -0.187,-0.45 -0.049,-0.142 -0.118,-0.308 -0.229,-0.487 -0.051,-0.09 -0.104,-0.186 -0.161,-0.286 -0.052,-0.102 -0.109,-0.206 -0.189,-0.307 -0.073,-0.104 -0.149,-0.21 -0.228,-0.321 -0.075,-0.111 -0.151,-0.228 -0.25,-0.336 -0.19,-0.219 -0.365,-0.462 -0.587,-0.689 -0.212,-0.235 -0.434,-0.471 -0.675,-0.702 -0.232,-0.237 -0.475,-0.474 -0.729,-0.699 -0.24,-0.239 -0.505,-0.456 -0.752,-0.684 -0.254,-0.223 -0.503,-0.441 -0.745,-0.652 -0.494,-0.419 -0.955,-0.811 -1.35,-1.146 -0.799,-0.672 -1.328,-1.151 -1.328,-1.151 z" />
  </g>
  <g
     id="g202"
     transform="matrix(0.34602297,0,0,0.60139737,359.35235,150.95398)">
    <path
       style="fill:#006068"
       inkscape:connector-curvature="0"
       id="path200"
       d="m 65.57,415.573 c 0,0 0.188,-0.051 0.529,-0.089 0.169,-0.012 0.378,-0.039 0.616,-0.032 0.239,-0.005 0.509,0.007 0.803,0.036 0.293,0.028 0.61,0.072 0.941,0.145 0.329,0.076 0.682,0.147 1.029,0.277 0.354,0.11 0.71,0.251 1.064,0.413 0.357,0.155 0.695,0.36 1.047,0.542 0.331,0.215 0.659,0.437 0.977,0.658 0.307,0.238 0.594,0.491 0.873,0.729 0.267,0.256 0.51,0.515 0.742,0.757 0.231,0.243 0.415,0.506 0.596,0.735 0.181,0.229 0.342,0.441 0.459,0.65 0.126,0.201 0.228,0.381 0.313,0.527 0.168,0.296 0.255,0.468 0.255,0.468 0,0 -0.152,-0.124 -0.404,-0.349 -0.125,-0.113 -0.278,-0.248 -0.443,-0.408 -0.162,-0.165 -0.37,-0.326 -0.582,-0.513 -0.22,-0.181 -0.44,-0.391 -0.689,-0.593 -0.255,-0.197 -0.523,-0.401 -0.789,-0.626 -0.279,-0.206 -0.583,-0.399 -0.869,-0.622 -0.304,-0.199 -0.616,-0.395 -0.929,-0.589 -0.322,-0.176 -0.632,-0.379 -0.959,-0.532 -0.328,-0.154 -0.639,-0.333 -0.961,-0.458 -0.315,-0.143 -0.627,-0.264 -0.925,-0.38 -0.3,-0.105 -0.586,-0.208 -0.854,-0.293 -1.07,-0.331 -1.84,-0.453 -1.84,-0.453 z" />
  </g>
  <g
     id="g206"
     transform="matrix(0.34602297,0,0,0.60139737,359.35235,150.95398)">
    <path
       style="fill:#006068"
       inkscape:connector-curvature="0"
       id="path204"
       d="m 75.814,435.595 c 0,0 0.702,-0.325 1.835,-0.52 0.283,-0.045 0.591,-0.102 0.919,-0.121 0.328,-0.034 0.677,-0.055 1.037,-0.051 0.361,-0.009 0.735,0.021 1.114,0.044 0.378,0.046 0.764,0.094 1.144,0.171 0.377,0.097 0.763,0.159 1.122,0.301 0.364,0.119 0.718,0.252 1.045,0.42 0.165,0.08 0.328,0.152 0.483,0.235 0.155,0.081 0.296,0.186 0.438,0.273 0.281,0.183 0.549,0.348 0.76,0.554 0.222,0.189 0.416,0.37 0.586,0.53 0.155,0.178 0.281,0.341 0.386,0.472 0.207,0.264 0.315,0.417 0.315,0.417 0,0 -0.169,-0.099 -0.445,-0.276 -0.138,-0.091 -0.305,-0.197 -0.487,-0.326 -0.201,-0.104 -0.427,-0.222 -0.663,-0.358 -0.23,-0.145 -0.514,-0.246 -0.792,-0.38 -0.276,-0.14 -0.588,-0.242 -0.904,-0.358 -0.311,-0.132 -0.653,-0.207 -0.991,-0.31 -0.335,-0.111 -0.694,-0.165 -1.043,-0.251 -0.352,-0.077 -0.711,-0.123 -1.062,-0.188 -0.354,-0.032 -0.701,-0.108 -1.043,-0.125 -0.341,-0.027 -0.671,-0.065 -0.986,-0.079 -0.316,-0.016 -0.616,-0.031 -0.893,-0.045 -0.555,-0.016 -1.022,-0.027 -1.353,-0.027 -0.332,-10e-4 -0.522,-0.002 -0.522,-0.002 z" />
  </g>
  <g
     id="g210"
     transform="matrix(0.34602297,0,0,0.60139737,359.35235,150.95398)">
    <path
       style="fill:#006068"
       inkscape:connector-curvature="0"
       id="path208"
       d="m 79.261,419.174 c 0,0 0.61,-0.212 1.557,-0.328 0.472,-0.065 1.026,-0.101 1.623,-0.102 0.298,0.013 0.607,0.003 0.92,0.035 0.313,0.028 0.632,0.055 0.948,0.111 0.317,0.051 0.634,0.108 0.941,0.195 0.311,0.065 0.606,0.181 0.894,0.284 0.29,0.087 0.554,0.24 0.805,0.363 0.257,0.109 0.469,0.294 0.672,0.427 0.21,0.125 0.357,0.316 0.502,0.449 0.069,0.073 0.139,0.133 0.191,0.201 0.048,0.073 0.092,0.141 0.131,0.201 0.154,0.242 0.228,0.378 0.228,0.378 0,0 -0.141,-0.09 -0.363,-0.243 -0.054,-0.038 -0.114,-0.081 -0.18,-0.127 -0.072,-0.037 -0.149,-0.077 -0.232,-0.119 -0.172,-0.075 -0.335,-0.193 -0.554,-0.263 -0.218,-0.07 -0.425,-0.182 -0.678,-0.245 -0.249,-0.068 -0.499,-0.156 -0.776,-0.215 -0.271,-0.07 -0.554,-0.129 -0.846,-0.182 -0.289,-0.061 -0.586,-0.113 -0.885,-0.155 -0.297,-0.06 -0.601,-0.087 -0.896,-0.135 -0.298,-0.04 -0.591,-0.08 -0.875,-0.119 -0.57,-0.065 -1.106,-0.133 -1.569,-0.191 -0.925,-0.111 -1.558,-0.22 -1.558,-0.22 z" />
  </g>
  <g
     id="g214"
     transform="matrix(0.34602297,0,0,0.60139737,359.35235,150.95398)">
    <path
       style="fill:#006068"
       inkscape:connector-curvature="0"
       id="path212"
       d="m 94.019,440.731 c 0,0 0.136,-0.2 0.417,-0.515 0.141,-0.158 0.316,-0.345 0.529,-0.549 0.216,-0.199 0.456,-0.432 0.745,-0.651 0.278,-0.234 0.6,-0.462 0.946,-0.696 0.349,-0.228 0.725,-0.461 1.129,-0.673 0.412,-0.196 0.824,-0.435 1.279,-0.592 0.225,-0.087 0.451,-0.174 0.679,-0.261 l 0.7,-0.214 c 0.468,-0.149 0.953,-0.222 1.425,-0.317 l 0.354,-0.066 0.354,-0.03 c 0.235,-0.02 0.468,-0.039 0.695,-0.058 0.455,-0.057 0.9,-10e-4 1.317,0 0.418,-0.007 0.81,0.065 1.17,0.118 0.358,0.059 0.688,0.089 0.973,0.176 0.285,0.075 0.531,0.15 0.732,0.21 0.403,0.121 0.628,0.199 0.628,0.199 0,0 -0.243,0.002 -0.66,-0.011 -0.209,-0.008 -0.461,-0.015 -0.746,-0.033 -0.285,-0.024 -0.613,0.016 -0.963,0.011 -0.351,0.009 -0.729,0 -1.127,0.048 -0.198,0.018 -0.402,0.036 -0.611,0.054 -0.207,0.018 -0.42,0.029 -0.633,0.071 -0.428,0.076 -0.873,0.116 -1.313,0.225 -0.442,0.102 -0.896,0.18 -1.333,0.329 l -0.664,0.186 c -0.217,0.077 -0.432,0.154 -0.645,0.23 -0.431,0.144 -0.842,0.322 -1.243,0.486 -0.394,0.182 -0.779,0.352 -1.137,0.53 -0.352,0.189 -0.695,0.354 -0.997,0.533 -0.614,0.342 -1.111,0.66 -1.459,0.888 -0.348,0.229 -0.541,0.372 -0.541,0.372 z" />
  </g>
  <g
     id="g218"
     transform="matrix(0.34602297,0,0,0.60139737,359.35235,150.95398)">
    <path
       style="fill:#006068"
       inkscape:connector-curvature="0"
       id="path216"
       d="m 92.514,422.929 c 0,0 0.681,-0.563 1.866,-1.13 0.586,-0.296 1.301,-0.578 2.084,-0.831 0.395,-0.115 0.804,-0.24 1.226,-0.333 0.427,-0.076 0.854,-0.186 1.295,-0.234 0.438,-0.053 0.876,-0.104 1.312,-0.114 0.217,-0.013 0.433,-0.02 0.646,-0.022 0.214,0.01 0.424,0.02 0.631,0.029 0.207,0.012 0.411,0.016 0.609,0.034 0.197,0.03 0.39,0.06 0.578,0.088 0.375,0.053 0.728,0.111 1.046,0.211 0.319,0.084 0.609,0.167 0.863,0.248 0.25,0.098 0.464,0.191 0.64,0.267 0.351,0.154 0.545,0.249 0.545,0.249 0,0 -0.221,-0.019 -0.597,-0.064 -0.187,-0.024 -0.413,-0.051 -0.669,-0.093 -0.261,-0.018 -0.555,-0.031 -0.87,-0.062 -0.313,-0.036 -0.659,-0.031 -1.021,-0.04 -0.18,-0.004 -0.365,-0.008 -0.555,-0.013 -0.189,0.013 -0.383,0.015 -0.579,0.021 -0.196,0.006 -0.396,0.013 -0.598,0.02 -0.201,0.022 -0.404,0.04 -0.61,0.054 -0.411,0.02 -0.826,0.082 -1.241,0.14 -0.418,0.034 -0.829,0.13 -1.237,0.191 -0.405,0.084 -0.808,0.152 -1.193,0.239 -0.383,0.101 -0.762,0.167 -1.112,0.266 -0.354,0.091 -0.688,0.177 -0.996,0.264 -0.615,0.172 -1.132,0.324 -1.491,0.438 -0.365,0.107 -0.572,0.177 -0.572,0.177 z" />
  </g>
  <g
     id="g222"
     transform="matrix(0.34602297,0,0,0.60139737,359.35235,150.95398)">
    <path
       style="fill:#006068"
       inkscape:connector-curvature="0"
       id="path220"
       d="m 117.099,394.031 c 0,0 0.04,0.153 0.065,0.43 0.021,0.275 0.023,0.674 -0.043,1.146 -0.041,0.232 -0.072,0.493 -0.152,0.753 -0.066,0.266 -0.146,0.543 -0.262,0.818 -0.1,0.282 -0.236,0.558 -0.371,0.841 -0.146,0.276 -0.31,0.55 -0.479,0.818 -0.188,0.255 -0.36,0.522 -0.563,0.76 -0.201,0.236 -0.406,0.465 -0.613,0.676 -0.209,0.208 -0.424,0.396 -0.624,0.576 -0.206,0.175 -0.417,0.32 -0.606,0.458 -0.37,0.287 -0.73,0.457 -0.968,0.59 -0.242,0.127 -0.385,0.191 -0.385,0.191 0,0 0.094,-0.13 0.266,-0.341 0.167,-0.214 0.433,-0.488 0.714,-0.847 0.142,-0.178 0.302,-0.362 0.469,-0.557 0.157,-0.204 0.319,-0.421 0.5,-0.632 0.176,-0.215 0.327,-0.46 0.509,-0.686 0.173,-0.232 0.33,-0.48 0.5,-0.72 0.156,-0.248 0.313,-0.495 0.466,-0.739 0.133,-0.255 0.302,-0.487 0.416,-0.737 0.127,-0.244 0.254,-0.479 0.358,-0.711 0.112,-0.229 0.201,-0.451 0.296,-0.655 0.167,-0.414 0.299,-0.77 0.384,-1.024 0.082,-0.254 0.123,-0.408 0.123,-0.408 z" />
  </g>
  <g
     id="g226"
     transform="matrix(0.34602297,0,0,0.60139737,359.35235,150.95398)">
    <path
       style="fill:#006068"
       inkscape:connector-curvature="0"
       id="path224"
       d="m 125.119,401.19 c 0,0 -0.002,0.16 -0.05,0.437 -0.053,0.274 -0.152,0.664 -0.336,1.108 -0.098,0.219 -0.196,0.464 -0.337,0.699 -0.132,0.242 -0.277,0.496 -0.457,0.737 -0.339,0.5 -0.766,0.982 -1.228,1.428 -0.243,0.208 -0.478,0.429 -0.729,0.617 -0.252,0.188 -0.508,0.363 -0.758,0.526 -0.254,0.156 -0.509,0.294 -0.747,0.425 -0.24,0.128 -0.482,0.224 -0.7,0.317 -0.43,0.198 -0.822,0.289 -1.086,0.367 -0.268,0.07 -0.423,0.103 -0.423,0.103 0,0 0.122,-0.106 0.339,-0.275 0.215,-0.173 0.536,-0.386 0.896,-0.675 0.181,-0.143 0.381,-0.286 0.589,-0.443 0.202,-0.165 0.412,-0.341 0.639,-0.508 0.221,-0.175 0.43,-0.379 0.661,-0.56 0.218,-0.196 0.439,-0.396 0.661,-0.596 0.212,-0.208 0.424,-0.416 0.633,-0.621 0.194,-0.218 0.414,-0.409 0.589,-0.627 0.184,-0.211 0.365,-0.412 0.526,-0.613 0.165,-0.198 0.31,-0.395 0.452,-0.572 0.27,-0.364 0.488,-0.68 0.639,-0.907 0.147,-0.228 0.227,-0.367 0.227,-0.367 z" />
  </g>
  <g
     id="g230"
     transform="matrix(0.34602297,0,0,0.60139737,359.35235,150.95398)">
    <path
       style="fill:#006068"
       inkscape:connector-curvature="0"
       id="path228"
       d="m 88.091,371.093 c 0,0 0.039,-0.043 0.12,-0.119 0.084,-0.073 0.203,-0.188 0.376,-0.303 0.168,-0.124 0.385,-0.254 0.641,-0.396 0.261,-0.126 0.555,-0.28 0.895,-0.394 0.333,-0.138 0.708,-0.236 1.106,-0.344 0.4,-0.077 0.825,-0.191 1.271,-0.229 0.444,-0.05 0.904,-0.11 1.373,-0.105 0.469,-0.021 0.942,-0.006 1.417,0.019 0.475,0.019 0.943,0.083 1.406,0.141 0.464,0.042 0.912,0.141 1.344,0.232 0.433,0.091 0.853,0.171 1.238,0.293 0.389,0.109 0.754,0.224 1.09,0.33 0.338,0.096 0.636,0.225 0.902,0.329 0.267,0.104 0.496,0.202 0.685,0.282 0.377,0.162 0.589,0.263 0.589,0.263 0,0 -0.235,-0.023 -0.642,-0.079 -0.202,-0.029 -0.448,-0.062 -0.727,-0.11 -0.28,-0.043 -0.593,-0.104 -0.938,-0.147 -0.345,-0.046 -0.716,-0.097 -1.105,-0.164 -0.389,-0.073 -0.807,-0.095 -1.23,-0.16 -0.213,-0.028 -0.429,-0.057 -0.647,-0.086 -0.22,-0.02 -0.441,-0.039 -0.665,-0.06 -0.447,-0.046 -0.9,-0.096 -1.354,-0.104 -0.453,-0.034 -0.906,-0.061 -1.353,-0.051 -0.222,0.005 -0.444,-0.011 -0.662,-0.005 -0.219,0.009 -0.434,0.017 -0.646,0.024 -0.425,0.012 -0.829,0.063 -1.219,0.091 -0.381,0.063 -0.752,0.094 -1.083,0.168 -0.336,0.059 -0.636,0.142 -0.908,0.205 -0.264,0.085 -0.501,0.148 -0.688,0.224 -0.379,0.139 -0.586,0.255 -0.586,0.255 z" />
  </g>
  <g
     id="g234"
     transform="matrix(0.34602297,0,0,0.60139737,359.35235,150.95398)">
    <path
       style="fill:#006068"
       inkscape:connector-curvature="0"
       id="path232"
       d="m 89.96,351.928 c 0,0 0.183,-0.14 0.554,-0.326 0.184,-0.106 0.415,-0.189 0.684,-0.293 0.269,-0.104 0.573,-0.225 0.918,-0.295 0.341,-0.086 0.714,-0.182 1.111,-0.265 0.399,-0.052 0.82,-0.112 1.26,-0.155 0.22,-0.023 0.442,-0.047 0.669,-0.071 0.226,-0.019 0.454,-0.014 0.685,-0.014 0.461,0.002 0.93,0.004 1.398,0.005 0.47,-0.003 0.934,0.055 1.39,0.104 0.457,0.045 0.904,0.116 1.338,0.17 0.433,0.063 0.854,0.101 1.241,0.207 0.392,0.088 0.758,0.183 1.097,0.271 1.354,0.348 2.229,0.661 2.229,0.661 0,0 -0.942,0.003 -2.316,-0.116 -0.345,-0.027 -0.716,-0.06 -1.106,-0.105 -0.391,-0.058 -0.81,-0.038 -1.235,-0.076 -0.428,-0.028 -0.87,-0.042 -1.316,-0.085 -0.447,-0.039 -0.901,-0.083 -1.355,-0.07 -0.453,-0.013 -0.907,-0.025 -1.354,-0.038 -0.223,-0.001 -0.445,-0.021 -0.664,-0.021 -0.218,0.007 -0.434,0.015 -0.646,0.021 -0.424,0.019 -0.835,0.019 -1.228,0.021 -0.386,0.041 -0.752,0.07 -1.093,0.095 -0.344,0.018 -0.65,0.066 -0.925,0.109 -0.273,0.046 -0.523,0.063 -0.713,0.116 -0.192,0.048 -0.354,0.069 -0.459,0.101 -0.105,0.032 -0.164,0.049 -0.164,0.049 z" />
  </g>
  <g
     id="g238"
     transform="matrix(0.34602297,0,0,0.60139737,359.35235,150.95398)">
    <path
       style="fill:#006068"
       inkscape:connector-curvature="0"
       id="path236"
       d="m 93.764,331.694 c 0,0 0.204,-0.124 0.585,-0.295 0.191,-0.082 0.425,-0.184 0.698,-0.278 0.275,-0.095 0.587,-0.204 0.935,-0.288 0.346,-0.102 0.727,-0.176 1.132,-0.253 0.406,-0.062 0.837,-0.137 1.286,-0.163 0.449,-0.024 0.915,-0.071 1.389,-0.045 0.475,0 0.955,0.039 1.435,0.088 0.48,0.038 0.951,0.153 1.418,0.233 0.234,0.035 0.461,0.1 0.684,0.167 0.224,0.065 0.443,0.129 0.66,0.192 0.436,0.114 0.83,0.311 1.214,0.457 0.389,0.139 0.727,0.338 1.043,0.506 0.314,0.173 0.609,0.313 0.846,0.486 0.242,0.162 0.446,0.313 0.615,0.433 0.336,0.245 0.521,0.391 0.521,0.391 0,0 -0.228,-0.076 -0.613,-0.223 -0.192,-0.074 -0.427,-0.161 -0.688,-0.271 -0.259,-0.114 -0.576,-0.188 -0.901,-0.309 -0.33,-0.107 -0.68,-0.242 -1.065,-0.337 -0.385,-0.095 -0.777,-0.23 -1.198,-0.317 -0.422,-0.084 -0.851,-0.194 -1.295,-0.264 -0.445,-0.063 -0.892,-0.163 -1.349,-0.189 -0.452,-0.057 -0.906,-0.105 -1.356,-0.115 -0.449,-0.029 -0.892,-0.037 -1.322,-0.038 -0.429,0.002 -0.846,0.017 -1.241,0.029 -0.394,0.034 -0.771,0.042 -1.114,0.083 -1.387,0.127 -2.319,0.32 -2.319,0.32 z" />
  </g>
  <g
     id="g242"
     transform="matrix(0.34602297,0,0,0.60139737,359.35235,150.95398)">
    <path
       style="fill:#006068"
       inkscape:connector-curvature="0"
       id="path240"
       d="m 100.177,310.871 c 0,0 0.215,-0.108 0.612,-0.245 0.199,-0.067 0.443,-0.145 0.729,-0.215 0.285,-0.068 0.608,-0.149 0.967,-0.197 0.357,-0.067 0.749,-0.102 1.165,-0.133 0.415,-0.019 0.856,-0.039 1.312,-0.014 0.454,0.034 0.928,0.042 1.399,0.136 0.236,0.04 0.477,0.07 0.715,0.121 l 0.71,0.172 c 0.478,0.106 0.928,0.303 1.383,0.456 0.229,0.071 0.444,0.177 0.654,0.282 0.211,0.104 0.42,0.205 0.625,0.306 0.413,0.193 0.769,0.463 1.124,0.679 0.361,0.207 0.653,0.479 0.936,0.704 0.275,0.235 0.544,0.428 0.739,0.651 0.205,0.21 0.376,0.4 0.518,0.555 0.281,0.311 0.434,0.493 0.434,0.493 0,0 -0.208,-0.124 -0.559,-0.349 -0.174,-0.113 -0.386,-0.248 -0.62,-0.41 -0.229,-0.171 -0.531,-0.303 -0.827,-0.486 -0.307,-0.169 -0.62,-0.378 -0.985,-0.54 -0.362,-0.164 -0.726,-0.373 -1.126,-0.533 -0.403,-0.154 -0.808,-0.341 -1.235,-0.481 -0.432,-0.133 -0.857,-0.308 -1.307,-0.397 l -0.664,-0.178 c -0.222,-0.053 -0.446,-0.086 -0.668,-0.13 -0.442,-0.092 -0.883,-0.15 -1.312,-0.208 -0.428,-0.047 -0.846,-0.085 -1.242,-0.112 -0.397,-0.011 -0.775,-0.041 -1.125,-0.035 -0.699,-0.009 -1.286,0.024 -1.699,0.051 -0.415,0.026 -0.653,0.057 -0.653,0.057 z" />
  </g>
  <g
     id="g246"
     transform="matrix(0.34602297,0,0,0.60139737,359.35235,150.95398)">
    <path
       style="fill:#006068"
       inkscape:connector-curvature="0"
       id="path244"
       d="m 109.732,290.589 c 0,-10e-4 0.223,-0.099 0.635,-0.213 0.206,-0.053 0.457,-0.12 0.751,-0.167 0.294,-0.051 0.627,-0.103 0.994,-0.123 0.367,-0.041 0.766,-0.03 1.189,-0.031 0.419,0.039 0.872,0.031 1.325,0.125 0.229,0.038 0.461,0.076 0.696,0.115 0.232,0.052 0.467,0.112 0.702,0.178 0.476,0.109 0.933,0.304 1.4,0.466 0.46,0.182 0.894,0.427 1.333,0.635 0.425,0.235 0.816,0.515 1.207,0.759 0.374,0.271 0.711,0.564 1.038,0.829 0.332,0.259 0.586,0.572 0.846,0.83 0.254,0.264 0.49,0.499 0.66,0.745 0.182,0.235 0.331,0.446 0.456,0.617 0.247,0.346 0.379,0.546 0.379,0.546 0,0 -0.194,-0.149 -0.521,-0.416 -0.159,-0.135 -0.354,-0.299 -0.576,-0.487 -0.21,-0.198 -0.488,-0.378 -0.768,-0.595 -0.142,-0.106 -0.289,-0.216 -0.441,-0.331 -0.15,-0.115 -0.303,-0.24 -0.477,-0.343 -0.337,-0.218 -0.692,-0.448 -1.061,-0.687 -0.382,-0.21 -0.776,-0.427 -1.177,-0.647 -0.417,-0.184 -0.827,-0.402 -1.261,-0.564 -0.434,-0.16 -0.856,-0.354 -1.299,-0.466 -0.22,-0.062 -0.435,-0.133 -0.648,-0.199 -0.218,-0.052 -0.433,-0.104 -0.645,-0.153 -0.422,-0.112 -0.841,-0.16 -1.235,-0.244 -0.398,-0.037 -0.775,-0.113 -1.127,-0.13 -1.404,-0.128 -2.375,-0.049 -2.375,-0.049 z" />
  </g>
  <g
     id="g250"
     transform="matrix(0.34602297,0,0,0.60139737,359.35235,150.95398)">
    <path
       style="fill:#006068"
       inkscape:connector-curvature="0"
       id="path248"
       d="m 124.346,270.068 c 0,0 0.225,-0.099 0.649,-0.184 0.212,-0.037 0.473,-0.079 0.775,-0.087 0.302,-0.018 0.646,-0.009 1.017,0.032 0.187,0.024 0.38,0.05 0.58,0.077 0.198,0.037 0.399,0.096 0.608,0.146 0.212,0.046 0.422,0.115 0.633,0.193 0.213,0.075 0.432,0.153 0.646,0.246 0.211,0.103 0.425,0.207 0.642,0.313 0.107,0.055 0.22,0.104 0.326,0.164 l 0.31,0.196 c 0.206,0.133 0.415,0.267 0.624,0.401 0.206,0.138 0.395,0.3 0.593,0.449 l 0.575,0.473 c 0.177,0.171 0.353,0.343 0.527,0.513 0.176,0.168 0.347,0.339 0.512,0.51 0.152,0.182 0.304,0.361 0.452,0.539 0.289,0.357 0.59,0.688 0.813,1.047 0.238,0.347 0.453,0.682 0.649,0.99 0.208,0.3 0.353,0.605 0.49,0.869 0.138,0.263 0.25,0.496 0.344,0.688 0.185,0.384 0.281,0.605 0.281,0.605 0,0 -0.167,-0.181 -0.443,-0.503 -0.135,-0.162 -0.299,-0.358 -0.487,-0.584 -0.188,-0.226 -0.385,-0.488 -0.631,-0.751 -0.241,-0.266 -0.5,-0.554 -0.763,-0.866 -0.255,-0.319 -0.586,-0.597 -0.881,-0.926 -0.153,-0.159 -0.31,-0.32 -0.468,-0.483 -0.171,-0.149 -0.341,-0.303 -0.509,-0.462 -0.169,-0.156 -0.339,-0.314 -0.51,-0.474 l -0.55,-0.43 c -0.183,-0.145 -0.356,-0.303 -0.545,-0.437 -0.191,-0.128 -0.382,-0.257 -0.571,-0.385 -0.371,-0.271 -0.772,-0.468 -1.145,-0.695 -0.192,-0.102 -0.391,-0.179 -0.577,-0.275 -0.186,-0.096 -0.372,-0.182 -0.561,-0.246 -0.187,-0.07 -0.368,-0.139 -0.545,-0.204 -0.18,-0.055 -0.354,-0.107 -0.521,-0.158 -0.167,-0.059 -0.333,-0.077 -0.489,-0.117 -0.156,-0.037 -0.306,-0.073 -0.447,-0.09 -0.284,-0.046 -0.534,-0.073 -0.744,-0.088 -0.207,-0.008 -0.374,-0.021 -0.486,-0.015 -0.112,0.002 -0.173,0.009 -0.173,0.009 z" />
  </g>
  <g
     id="g254"
     transform="matrix(0.34602297,0,0,0.60139737,359.35235,150.95398)">
    <path
       style="fill:#006068"
       inkscape:connector-curvature="0"
       id="path252"
       d="m 142.595,253.332 c 0,0 0.242,-0.021 0.671,0.02 0.211,0.032 0.474,0.057 0.764,0.135 0.296,0.059 0.615,0.171 0.968,0.293 0.337,0.149 0.723,0.288 1.084,0.515 0.184,0.109 0.384,0.206 0.567,0.334 0.187,0.126 0.37,0.264 0.56,0.4 0.196,0.131 0.363,0.299 0.548,0.455 0.177,0.161 0.371,0.313 0.535,0.494 0.163,0.183 0.328,0.366 0.494,0.551 l 0.249,0.277 0.223,0.297 c 0.282,0.408 0.589,0.802 0.813,1.232 0.24,0.423 0.484,0.837 0.652,1.266 0.183,0.424 0.361,0.832 0.497,1.229 0.128,0.401 0.236,0.783 0.334,1.136 0.047,0.176 0.103,0.341 0.136,0.504 0.029,0.164 0.056,0.32 0.082,0.467 0.053,0.291 0.09,0.547 0.121,0.757 0.062,0.42 0.087,0.659 0.087,0.659 0,0 -0.104,-0.222 -0.271,-0.609 -0.08,-0.194 -0.177,-0.43 -0.289,-0.7 -0.104,-0.271 -0.229,-0.574 -0.387,-0.896 -0.152,-0.322 -0.315,-0.671 -0.476,-1.043 -0.175,-0.365 -0.397,-0.73 -0.592,-1.124 -0.182,-0.401 -0.46,-0.761 -0.687,-1.159 -0.221,-0.403 -0.518,-0.761 -0.788,-1.137 l -0.2,-0.283 -0.226,-0.262 c -0.148,-0.175 -0.298,-0.349 -0.445,-0.521 -0.321,-0.318 -0.62,-0.654 -0.947,-0.936 -0.331,-0.277 -0.643,-0.561 -0.973,-0.783 -0.315,-0.246 -0.646,-0.428 -0.938,-0.623 -0.31,-0.159 -0.587,-0.33 -0.851,-0.442 -0.26,-0.127 -0.494,-0.215 -0.688,-0.296 -0.197,-0.064 -0.352,-0.13 -0.46,-0.158 -0.108,-0.037 -0.167,-0.049 -0.167,-0.049 z" />
  </g>
  <g
     id="g258"
     transform="matrix(0.34602297,0,0,0.60139737,359.35235,150.95398)">
    <path
       style="fill:#006068"
       inkscape:connector-curvature="0"
       id="path256"
       d="m 165.73,240.247 c 0,0 0.191,0.14 0.494,0.42 0.3,0.281 0.721,0.699 1.161,1.255 0.229,0.271 0.455,0.582 0.687,0.917 0.229,0.335 0.462,0.697 0.683,1.084 0.203,0.395 0.45,0.787 0.626,1.221 0.095,0.215 0.19,0.431 0.286,0.646 l 0.252,0.667 c 0.169,0.446 0.29,0.907 0.413,1.359 0.144,0.446 0.19,0.91 0.277,1.347 0.097,0.436 0.104,0.871 0.141,1.276 0.013,0.204 0.038,0.4 0.038,0.592 -0.005,0.192 -0.01,0.378 -0.015,0.556 -0.011,0.355 -0.012,0.679 -0.049,0.965 -0.035,0.286 -0.076,0.534 -0.108,0.738 -0.066,0.406 -0.113,0.635 -0.113,0.635 0,0 -0.034,-0.235 -0.078,-0.642 -0.021,-0.203 -0.048,-0.448 -0.068,-0.729 -0.025,-0.279 -0.094,-0.593 -0.134,-0.934 -0.045,-0.341 -0.1,-0.707 -0.186,-1.091 -0.083,-0.384 -0.143,-0.791 -0.259,-1.202 -0.106,-0.412 -0.203,-0.84 -0.342,-1.265 -0.128,-0.428 -0.253,-0.862 -0.423,-1.283 l -0.225,-0.641 c -0.086,-0.209 -0.172,-0.417 -0.258,-0.623 -0.163,-0.416 -0.354,-0.813 -0.526,-1.203 -0.191,-0.381 -0.363,-0.758 -0.546,-1.105 -0.188,-0.345 -0.354,-0.68 -0.527,-0.978 -0.673,-1.202 -1.201,-1.982 -1.201,-1.982 z" />
  </g>
  <g
     id="g262"
     transform="matrix(0.34602297,0,0,0.60139737,359.35235,150.95398)">
    <path
       style="fill:#006068"
       inkscape:connector-curvature="0"
       id="path260"
       d="m 481.278,207.223 c -0.204,8.764 -4.168,15.598 -17.636,15.432 -9.208,-0.114 -19.88,-7.106 -19.88,-15.872 0,-11.704 10.671,-17.476 19.88,-17.476 9.209,0 17.869,7.912 17.636,17.916 z" />
  </g>
  <g
     id="g266"
     transform="matrix(0.34602297,0,0,0.60139737,359.35235,150.95398)">
    <path
       style="fill:#006068"
       inkscape:connector-curvature="0"
       id="path264"
       d="m 464.54,164.148 c 0,0 0.04,0.056 0.125,0.152 0.078,0.099 0.216,0.229 0.376,0.397 0.172,0.163 0.379,0.355 0.634,0.557 0.121,0.106 0.26,0.208 0.411,0.309 0.152,0.099 0.294,0.224 0.467,0.322 0.339,0.206 0.704,0.422 1.113,0.613 0.391,0.221 0.855,0.349 1.3,0.548 0.234,0.069 0.473,0.14 0.715,0.212 0.239,0.077 0.485,0.143 0.739,0.19 0.252,0.054 0.506,0.109 0.76,0.164 0.254,0.059 0.52,0.068 0.778,0.105 l 0.78,0.107 c 0.262,0.012 0.523,0.024 0.783,0.036 0.26,0.01 0.517,0.025 0.771,0.043 0.256,0.007 0.508,-0.007 0.757,-0.01 0.249,-0.004 0.494,-0.015 0.734,-0.012 0.241,0.004 0.477,0 0.705,-0.026 0.456,-0.042 0.892,-0.068 1.294,-0.092 0.404,-0.016 0.771,-0.072 1.098,-0.108 0.328,-0.035 0.615,-0.066 0.851,-0.091 0.474,-0.044 0.749,-0.062 0.749,-0.062 0,0 -0.254,0.096 -0.707,0.249 -0.228,0.073 -0.504,0.163 -0.821,0.266 -0.319,0.098 -0.677,0.223 -1.082,0.292 -0.402,0.085 -0.84,0.176 -1.305,0.26 -0.463,0.102 -0.965,0.12 -1.479,0.17 -0.259,0.019 -0.521,0.05 -0.788,0.059 -0.268,0.001 -0.538,-0.002 -0.812,-0.011 -0.273,-0.007 -0.549,-0.015 -0.825,-0.021 l -0.831,-0.098 c -0.275,-0.044 -0.555,-0.062 -0.825,-0.13 -0.271,-0.064 -0.542,-0.128 -0.811,-0.191 -0.134,-0.034 -0.268,-0.061 -0.399,-0.099 l -0.385,-0.141 c -0.254,-0.093 -0.504,-0.186 -0.752,-0.276 -0.472,-0.235 -0.942,-0.431 -1.341,-0.71 -0.2,-0.134 -0.406,-0.246 -0.585,-0.386 -0.176,-0.143 -0.346,-0.28 -0.51,-0.412 -0.313,-0.28 -0.592,-0.543 -0.804,-0.81 -0.227,-0.251 -0.391,-0.499 -0.526,-0.698 -0.255,-0.41 -0.352,-0.667 -0.352,-0.667 z" />
  </g>
  <g
     id="g270"
     transform="matrix(0.34602297,0,0,0.60139737,359.35235,150.95398)">
    <path
       style="fill:#006068"
       inkscape:connector-curvature="0"
       id="path268"
       d="m 462.522,178.756 c 0,0 0.194,0.125 0.542,0.318 0.348,0.193 0.844,0.461 1.454,0.741 0.302,0.147 0.64,0.277 0.99,0.428 0.353,0.144 0.734,0.269 1.122,0.409 0.396,0.118 0.801,0.252 1.224,0.345 0.209,0.052 0.42,0.104 0.632,0.156 l 0.647,0.105 c 0.429,0.099 0.867,0.117 1.295,0.165 0.429,0.051 0.854,0.034 1.267,0.055 0.207,0.016 0.408,-0.006 0.607,-0.014 0.199,-0.009 0.395,-0.018 0.584,-0.027 0.383,-0.004 0.737,-0.07 1.07,-0.106 0.33,-0.053 0.646,-0.055 0.911,-0.122 0.268,-0.058 0.505,-0.1 0.701,-0.136 0.393,-0.07 0.624,-0.103 0.624,-0.103 0,0 -0.201,0.108 -0.563,0.284 -0.182,0.087 -0.402,0.195 -0.661,0.309 -0.255,0.129 -0.564,0.201 -0.896,0.309 -0.334,0.099 -0.694,0.23 -1.093,0.278 -0.396,0.057 -0.813,0.168 -1.252,0.176 -0.22,0.01 -0.443,0.021 -0.67,0.031 -0.227,0.016 -0.456,0.021 -0.687,-0.005 -0.461,-0.04 -0.934,-0.049 -1.396,-0.144 l -0.692,-0.13 c -0.226,-0.062 -0.45,-0.123 -0.673,-0.184 -0.452,-0.105 -0.867,-0.3 -1.277,-0.45 -0.404,-0.17 -0.784,-0.36 -1.134,-0.554 -0.351,-0.196 -0.674,-0.392 -0.956,-0.597 -0.292,-0.189 -0.536,-0.398 -0.756,-0.574 -0.216,-0.182 -0.396,-0.349 -0.539,-0.492 -0.285,-0.286 -0.425,-0.471 -0.425,-0.471 z" />
  </g>
  <g
     id="g278"
     transform="matrix(0.34602297,0,0,0.60139737,359.35235,150.95398)">
    <path
       style="fill:#006068"
       inkscape:connector-curvature="0"
       id="path276"
       d="m 433.302,205.074 c 0,0 0.059,-0.012 0.165,-0.044 0.105,-0.026 0.258,-0.088 0.448,-0.154 0.19,-0.074 0.416,-0.17 0.669,-0.292 0.128,-0.056 0.259,-0.127 0.395,-0.206 0.134,-0.081 0.285,-0.143 0.427,-0.241 0.29,-0.182 0.598,-0.383 0.907,-0.62 0.323,-0.214 0.61,-0.517 0.943,-0.773 0.295,-0.307 0.623,-0.594 0.912,-0.933 0.296,-0.334 0.605,-0.663 0.863,-1.039 l 0.419,-0.535 c 0.133,-0.184 0.251,-0.377 0.376,-0.563 0.121,-0.188 0.246,-0.373 0.373,-0.554 0.126,-0.182 0.225,-0.378 0.336,-0.562 0.204,-0.378 0.447,-0.72 0.625,-1.075 0.178,-0.354 0.356,-0.686 0.524,-0.992 0.173,-0.305 0.306,-0.596 0.43,-0.852 0.121,-0.258 0.236,-0.479 0.33,-0.663 0.188,-0.367 0.306,-0.576 0.306,-0.576 0,0 -0.039,0.232 -0.125,0.638 -0.044,0.202 -0.096,0.449 -0.166,0.729 -0.066,0.282 -0.138,0.603 -0.264,0.936 -0.115,0.337 -0.24,0.703 -0.386,1.087 -0.139,0.386 -0.339,0.771 -0.532,1.176 -0.187,0.408 -0.413,0.814 -0.672,1.212 -0.127,0.2 -0.247,0.407 -0.383,0.604 l -0.433,0.58 c -0.284,0.391 -0.623,0.739 -0.949,1.088 -0.155,0.182 -0.334,0.339 -0.515,0.488 -0.179,0.153 -0.354,0.304 -0.527,0.452 -0.374,0.262 -0.721,0.534 -1.095,0.726 -0.185,0.1 -0.354,0.209 -0.534,0.29 -0.181,0.078 -0.354,0.152 -0.521,0.225 -0.339,0.132 -0.655,0.236 -0.943,0.3 -0.284,0.074 -0.539,0.106 -0.747,0.132 -0.419,0.037 -0.656,0.011 -0.656,0.011 z" />
  </g>
  <g
     id="g282"
     transform="matrix(0.34602297,0,0,0.60139737,359.35235,150.95398)">
    <path
       style="fill:#006068"
       inkscape:connector-curvature="0"
       id="path280"
       d="m 487.058,175.996 c 0,0 0.03,0.06 0.097,0.167 0.062,0.109 0.166,0.26 0.29,0.456 0.261,0.384 0.634,0.927 1.145,1.523 0.239,0.309 0.548,0.603 0.84,0.938 0.16,0.154 0.325,0.312 0.494,0.474 0.167,0.162 0.337,0.329 0.527,0.479 0.185,0.156 0.371,0.314 0.562,0.474 0.201,0.146 0.403,0.293 0.608,0.441 0.394,0.319 0.853,0.556 1.286,0.828 0.438,0.268 0.912,0.471 1.359,0.708 0.47,0.19 0.934,0.377 1.381,0.559 0.465,0.143 0.914,0.281 1.34,0.412 0.211,0.078 0.427,0.109 0.633,0.155 0.207,0.046 0.406,0.091 0.598,0.135 0.385,0.082 0.736,0.182 1.056,0.213 0.319,0.049 0.598,0.092 0.827,0.127 0.46,0.077 0.727,0.13 0.727,0.13 0,0 -0.265,0.028 -0.733,0.062 -0.234,0.015 -0.521,0.036 -0.849,0.049 -0.33,0.031 -0.699,-0.001 -1.104,-0.033 -0.403,-0.04 -0.85,-0.038 -1.307,-0.135 -0.457,-0.093 -0.945,-0.181 -1.441,-0.306 -0.483,-0.167 -0.995,-0.316 -1.497,-0.515 -0.483,-0.241 -0.995,-0.448 -1.469,-0.726 -0.461,-0.3 -0.943,-0.567 -1.359,-0.916 -0.214,-0.165 -0.427,-0.329 -0.628,-0.501 -0.191,-0.183 -0.38,-0.364 -0.565,-0.542 -0.384,-0.343 -0.678,-0.75 -0.985,-1.101 -0.276,-0.38 -0.547,-0.73 -0.747,-1.087 -0.222,-0.342 -0.388,-0.677 -0.533,-0.973 -0.145,-0.296 -0.251,-0.564 -0.334,-0.785 -0.166,-0.446 -0.219,-0.71 -0.219,-0.71 z" />
  </g>
  <g
     id="g286"
     transform="matrix(0.34602297,0,0,0.60139737,359.35235,150.95398)">
    <path
       style="fill:#006068"
       inkscape:connector-curvature="0"
       id="path284"
       d="m 479.835,187.962 c 0,0 0.146,0.221 0.417,0.582 0.144,0.177 0.308,0.395 0.513,0.633 0.196,0.244 0.442,0.5 0.694,0.786 0.271,0.273 0.553,0.576 0.872,0.875 0.16,0.149 0.324,0.303 0.491,0.459 0.174,0.149 0.352,0.302 0.532,0.457 0.349,0.324 0.761,0.597 1.145,0.914 0.398,0.3 0.822,0.58 1.238,0.867 0.433,0.265 0.854,0.55 1.288,0.797 0.445,0.229 0.863,0.492 1.288,0.71 0.434,0.202 0.846,0.413 1.239,0.611 0.403,0.179 0.784,0.348 1.137,0.504 0.354,0.155 0.675,0.311 0.972,0.416 0.293,0.117 0.55,0.22 0.761,0.305 0.421,0.176 0.662,0.285 0.662,0.285 0,0 -0.26,-0.03 -0.713,-0.101 -0.227,-0.038 -0.501,-0.084 -0.816,-0.138 -0.318,-0.047 -0.667,-0.137 -1.047,-0.246 -0.379,-0.107 -0.797,-0.208 -1.225,-0.359 -0.423,-0.158 -0.873,-0.323 -1.332,-0.512 -0.451,-0.203 -0.914,-0.427 -1.379,-0.665 -0.458,-0.248 -0.906,-0.534 -1.363,-0.804 -0.432,-0.311 -0.868,-0.614 -1.278,-0.938 -0.401,-0.336 -0.798,-0.664 -1.146,-1.022 -0.176,-0.177 -0.356,-0.342 -0.518,-0.52 -0.156,-0.182 -0.31,-0.359 -0.459,-0.532 -0.303,-0.34 -0.547,-0.698 -0.778,-1.02 -0.222,-0.331 -0.417,-0.637 -0.567,-0.923 -0.164,-0.276 -0.274,-0.537 -0.375,-0.743 -0.182,-0.425 -0.253,-0.678 -0.253,-0.678 z" />
  </g>
  <g
     id="g290"
     transform="matrix(0.34602297,0,0,0.60139737,359.35235,150.95398)">
    <path
       style="fill:#006068"
       inkscape:connector-curvature="0"
       id="path288"
       d="m 503.777,205.982 c 0,0 -0.046,0.244 -0.111,0.671 -0.069,0.425 -0.157,1.032 -0.254,1.757 -0.043,0.362 -0.088,0.755 -0.137,1.17 -0.053,0.413 -0.074,0.853 -0.119,1.303 -0.046,0.451 -0.043,0.92 -0.084,1.392 -0.002,0.474 -0.033,0.955 -0.015,1.435 0.012,0.479 -0.004,0.961 0.046,1.431 0.02,0.235 0.034,0.469 0.045,0.7 0.01,0.231 0.051,0.456 0.074,0.681 0.054,0.446 0.096,0.88 0.183,1.284 0.081,0.404 0.124,0.798 0.226,1.146 0.091,0.35 0.165,0.676 0.23,0.968 0.09,0.283 0.168,0.53 0.232,0.733 0.126,0.412 0.191,0.655 0.191,0.655 0,0 -0.137,-0.204 -0.365,-0.575 -0.112,-0.187 -0.255,-0.412 -0.401,-0.68 -0.127,-0.275 -0.27,-0.589 -0.414,-0.936 -0.165,-0.342 -0.272,-0.734 -0.398,-1.147 -0.06,-0.208 -0.134,-0.419 -0.185,-0.64 -0.051,-0.221 -0.09,-0.449 -0.137,-0.68 -0.099,-0.463 -0.167,-0.944 -0.207,-1.438 -0.063,-0.493 -0.061,-0.994 -0.081,-1.496 -0.009,-0.502 0.035,-1.002 0.05,-1.495 0.045,-0.49 0.098,-0.973 0.17,-1.435 0.07,-0.463 0.152,-0.907 0.254,-1.324 0.085,-0.42 0.199,-0.809 0.304,-1.167 0.419,-1.435 0.903,-2.313 0.903,-2.313 z" />
  </g>
  <g
     id="g294"
     transform="matrix(0.34602297,0,0,0.60139737,359.35235,150.95398)">
    <path
       style="fill:#006068"
       inkscape:connector-curvature="0"
       id="path292"
       d="m 489.59,209.925 c 0,0 -0.142,0.167 -0.324,0.487 -0.186,0.319 -0.416,0.789 -0.62,1.379 -0.115,0.287 -0.192,0.62 -0.302,0.955 -0.08,0.349 -0.182,0.707 -0.25,1.09 -0.037,0.19 -0.075,0.384 -0.113,0.58 -0.025,0.199 -0.053,0.399 -0.087,0.601 -0.075,0.4 -0.103,0.817 -0.146,1.231 -0.063,0.411 -0.07,0.831 -0.102,1.24 -0.031,0.41 -0.051,0.816 -0.063,1.211 -0.009,0.394 -0.044,0.774 -0.039,1.138 -10e-4,0.362 -0.014,0.707 -0.026,1.025 -0.016,0.318 -0.007,0.61 -0.015,0.871 -10e-4,0.26 -0.012,0.487 -0.019,0.676 -0.017,0.376 -0.034,0.594 -0.034,0.594 0,0 -0.063,-0.207 -0.156,-0.572 -0.045,-0.184 -0.103,-0.405 -0.158,-0.662 -0.054,-0.257 -0.132,-0.546 -0.17,-0.866 -0.092,-0.64 -0.211,-1.389 -0.229,-2.201 -0.014,-0.405 -0.05,-0.825 -0.019,-1.253 0.021,-0.427 0.018,-0.861 0.072,-1.296 0.056,-0.433 0.097,-0.867 0.188,-1.29 0.068,-0.425 0.178,-0.836 0.296,-1.231 0.097,-0.399 0.263,-0.769 0.394,-1.121 0.157,-0.346 0.302,-0.672 0.48,-0.953 0.158,-0.29 0.341,-0.535 0.501,-0.749 0.169,-0.21 0.325,-0.384 0.467,-0.514 0.134,-0.138 0.262,-0.223 0.343,-0.284 0.084,-0.06 0.131,-0.086 0.131,-0.086 z" />
  </g>
  <g
     id="g298"
     transform="matrix(0.34602297,0,0,0.60139737,359.35235,150.95398)">
    <path
       style="fill:#006068"
       inkscape:connector-curvature="0"
       id="path296"
       d="m 302.035,262.049 c 0,0 -0.057,-0.237 -0.074,-0.67 10e-4,-0.214 -0.005,-0.479 0.036,-0.777 0.021,-0.303 0.097,-0.636 0.183,-1 0.104,-0.356 0.214,-0.751 0.4,-1.139 0.154,-0.404 0.392,-0.791 0.626,-1.199 0.127,-0.197 0.271,-0.386 0.41,-0.584 0.14,-0.197 0.278,-0.401 0.452,-0.574 0.333,-0.362 0.658,-0.744 1.041,-1.063 l 0.564,-0.486 c 0.192,-0.155 0.399,-0.289 0.596,-0.433 0.392,-0.29 0.795,-0.55 1.205,-0.763 0.405,-0.22 0.788,-0.449 1.179,-0.608 0.387,-0.167 0.757,-0.313 1.097,-0.447 0.335,-0.147 0.662,-0.231 0.947,-0.313 0.285,-0.084 0.536,-0.147 0.741,-0.201 0.412,-0.104 0.649,-0.156 0.649,-0.156 0,0 -0.21,0.128 -0.58,0.335 -0.185,0.101 -0.41,0.223 -0.668,0.362 -0.258,0.137 -0.553,0.282 -0.856,0.474 -0.307,0.185 -0.638,0.383 -0.993,0.581 -0.357,0.195 -0.693,0.465 -1.07,0.693 -0.182,0.124 -0.379,0.233 -0.556,0.374 -0.177,0.142 -0.357,0.28 -0.543,0.416 -0.182,0.14 -0.375,0.271 -0.551,0.42 l -0.517,0.466 c -0.367,0.289 -0.673,0.636 -0.99,0.963 -0.314,0.329 -0.585,0.685 -0.86,1.021 -0.231,0.363 -0.502,0.69 -0.684,1.044 -0.209,0.341 -0.366,0.682 -0.521,0.998 -0.127,0.323 -0.266,0.62 -0.344,0.896 -0.092,0.272 -0.153,0.517 -0.205,0.72 -0.039,0.203 -0.081,0.367 -0.093,0.478 -0.017,0.111 -0.021,0.172 -0.021,0.172 z" />
  </g>
  <g
     id="g302"
     transform="matrix(0.34602297,0,0,0.60139737,359.35235,150.95398)">
    <path
       style="fill:#006068"
       inkscape:connector-curvature="0"
       id="path300"
       d="m 329.389,262.857 c 0,0 -0.063,0.013 -0.176,0.048 -0.114,0.029 -0.276,0.091 -0.484,0.159 -0.205,0.073 -0.452,0.171 -0.729,0.29 -0.275,0.122 -0.58,0.269 -0.899,0.448 -0.164,0.081 -0.326,0.18 -0.488,0.293 -0.162,0.112 -0.341,0.206 -0.507,0.33 -0.326,0.259 -0.679,0.513 -0.994,0.833 -0.347,0.286 -0.619,0.664 -0.932,1.012 -0.163,0.169 -0.271,0.385 -0.41,0.576 -0.125,0.201 -0.281,0.384 -0.383,0.601 l -0.332,0.635 -0.167,0.315 c -0.049,0.108 -0.085,0.223 -0.127,0.332 -0.081,0.224 -0.165,0.443 -0.253,0.659 l -0.13,0.322 c -0.029,0.112 -0.058,0.224 -0.087,0.333 -0.105,0.443 -0.247,0.864 -0.34,1.275 -0.065,0.416 -0.14,0.811 -0.209,1.176 -0.033,0.184 -0.072,0.358 -0.095,0.527 -0.018,0.169 -0.034,0.329 -0.05,0.479 -0.035,0.304 -0.065,0.568 -0.091,0.786 -0.057,0.438 -0.098,0.691 -0.098,0.691 0,0 -0.04,-0.248 -0.094,-0.688 -0.025,-0.221 -0.059,-0.489 -0.086,-0.799 -0.015,-0.155 -0.03,-0.32 -0.046,-0.494 -0.011,-0.174 0.006,-0.357 0.008,-0.549 0.01,-0.383 0.022,-0.801 0.05,-1.242 0.049,-0.438 0.141,-0.899 0.23,-1.378 0.022,-0.119 0.047,-0.239 0.07,-0.36 0.038,-0.118 0.075,-0.237 0.114,-0.357 0.074,-0.24 0.155,-0.482 0.241,-0.725 0.044,-0.121 0.081,-0.245 0.131,-0.364 l 0.174,-0.352 0.353,-0.705 c 0.118,-0.235 0.294,-0.438 0.438,-0.656 0.159,-0.21 0.286,-0.442 0.47,-0.628 0.35,-0.386 0.697,-0.763 1.095,-1.061 0.366,-0.334 0.788,-0.563 1.169,-0.801 0.399,-0.203 0.775,-0.401 1.148,-0.519 0.186,-0.062 0.357,-0.132 0.527,-0.178 0.172,-0.042 0.334,-0.081 0.487,-0.118 0.306,-0.07 0.578,-0.103 0.8,-0.128 0.223,-0.022 0.398,-0.024 0.519,-0.023 0.12,0 0.183,0.005 0.183,0.005 z" />
  </g>
  <g
     id="g306"
     transform="matrix(0.34602297,0,0,0.60139737,359.35235,150.95398)">
    <path
       style="fill:#006068"
       inkscape:connector-curvature="0"
       id="path304"
       d="m 346.325,268.918 c 0,0 -0.047,0.039 -0.128,0.122 -0.083,0.077 -0.195,0.204 -0.342,0.356 -0.283,0.315 -0.684,0.766 -1.089,1.354 -0.217,0.281 -0.397,0.625 -0.621,0.96 -0.094,0.179 -0.19,0.362 -0.288,0.55 -0.05,0.094 -0.1,0.188 -0.149,0.283 -0.043,0.099 -0.086,0.198 -0.129,0.299 -0.086,0.201 -0.173,0.404 -0.262,0.611 -0.066,0.215 -0.134,0.432 -0.21,0.646 l -0.111,0.325 -0.074,0.338 -0.15,0.679 c -0.074,0.457 -0.13,0.92 -0.175,1.375 0.008,0.46 -0.035,0.913 -0.024,1.353 0.043,0.438 0.065,0.866 0.091,1.273 0.052,0.403 0.126,0.784 0.175,1.141 0.051,0.355 0.099,0.684 0.179,0.967 0.066,0.288 0.123,0.539 0.17,0.746 0.089,0.418 0.133,0.664 0.133,0.664 0,0 -0.118,-0.214 -0.313,-0.598 -0.095,-0.193 -0.215,-0.427 -0.341,-0.701 -0.062,-0.137 -0.139,-0.28 -0.197,-0.438 -0.053,-0.161 -0.108,-0.33 -0.166,-0.506 -0.11,-0.354 -0.251,-0.736 -0.348,-1.153 -0.076,-0.422 -0.159,-0.87 -0.228,-1.336 -0.038,-0.469 -0.053,-0.959 -0.06,-1.457 0.037,-0.495 0.085,-1.003 0.158,-1.504 l 0.181,-0.74 0.091,-0.367 0.13,-0.354 c 0.084,-0.235 0.174,-0.467 0.265,-0.694 0.111,-0.217 0.222,-0.433 0.329,-0.644 0.104,-0.214 0.216,-0.418 0.353,-0.603 0.128,-0.188 0.253,-0.372 0.375,-0.551 0.274,-0.336 0.521,-0.66 0.797,-0.918 0.255,-0.274 0.521,-0.494 0.754,-0.688 0.235,-0.191 0.453,-0.34 0.634,-0.459 0.363,-0.234 0.59,-0.331 0.59,-0.331 z" />
  </g>
  <g
     id="g310"
     transform="matrix(0.34602297,0,0,0.60139737,359.35235,150.95398)">
    <path
       style="fill:#006068"
       inkscape:connector-curvature="0"
       id="path308"
       d="m 369.038,270.586 c 0,0 -0.044,0.044 -0.116,0.136 -0.078,0.085 -0.173,0.229 -0.303,0.397 -0.117,0.181 -0.267,0.391 -0.408,0.65 -0.157,0.248 -0.285,0.558 -0.448,0.874 -0.122,0.34 -0.283,0.689 -0.385,1.085 -0.135,0.385 -0.193,0.812 -0.287,1.242 -0.048,0.215 -0.048,0.443 -0.075,0.668 -0.016,0.227 -0.059,0.452 -0.049,0.687 0.004,0.465 -0.029,0.936 0.044,1.407 l 0.058,0.709 c 0.024,0.235 0.083,0.466 0.122,0.697 0.046,0.23 0.086,0.46 0.121,0.688 0.037,0.229 0.113,0.445 0.167,0.665 0.132,0.431 0.198,0.867 0.344,1.258 0.14,0.393 0.26,0.769 0.371,1.119 0.104,0.353 0.236,0.661 0.344,0.941 0.106,0.282 0.199,0.527 0.275,0.729 0.148,0.407 0.226,0.647 0.226,0.647 0,0 -0.147,-0.199 -0.395,-0.559 -0.122,-0.181 -0.273,-0.398 -0.437,-0.656 -0.165,-0.256 -0.363,-0.54 -0.52,-0.882 -0.17,-0.334 -0.354,-0.699 -0.538,-1.09 -0.195,-0.387 -0.324,-0.828 -0.484,-1.274 -0.168,-0.444 -0.293,-0.921 -0.387,-1.414 -0.048,-0.246 -0.114,-0.49 -0.146,-0.743 l -0.079,-0.764 c -0.065,-0.509 -0.021,-1.026 -0.013,-1.531 -0.007,-0.254 0.054,-0.503 0.09,-0.749 0.046,-0.245 0.065,-0.49 0.133,-0.724 0.126,-0.469 0.252,-0.918 0.443,-1.319 0.152,-0.416 0.387,-0.769 0.573,-1.101 0.221,-0.315 0.419,-0.604 0.635,-0.828 0.195,-0.239 0.405,-0.414 0.564,-0.564 0.341,-0.279 0.56,-0.401 0.56,-0.401 z" />
  </g>
  <g
     id="g314"
     transform="matrix(0.34602297,0,0,0.60139737,359.35235,150.95398)">
    <path
       style="fill:#006068"
       inkscape:connector-curvature="0"
       id="path312"
       d="m 388.874,266.724 c 0,0 0.008,0.239 0.04,0.651 0.026,0.413 0.081,0.999 0.157,1.695 0.046,0.348 0.088,0.722 0.152,1.116 0.051,0.396 0.14,0.806 0.215,1.231 0.066,0.428 0.206,0.854 0.29,1.297 0.13,0.432 0.234,0.88 0.393,1.308 0.156,0.429 0.279,0.872 0.479,1.273 0.093,0.204 0.181,0.409 0.263,0.614 0.087,0.202 0.201,0.387 0.297,0.577 0.1,0.19 0.202,0.373 0.293,0.56 0.104,0.178 0.218,0.344 0.323,0.51 0.215,0.33 0.401,0.657 0.628,0.918 0.212,0.277 0.406,0.53 0.579,0.755 0.197,0.202 0.364,0.387 0.504,0.539 0.278,0.306 0.436,0.49 0.436,0.49 0,0 -0.203,-0.118 -0.558,-0.344 -0.176,-0.113 -0.393,-0.251 -0.635,-0.419 -0.225,-0.187 -0.473,-0.407 -0.739,-0.655 -0.283,-0.233 -0.533,-0.537 -0.797,-0.862 -0.131,-0.163 -0.274,-0.326 -0.407,-0.502 -0.123,-0.182 -0.237,-0.374 -0.361,-0.566 -0.255,-0.382 -0.479,-0.798 -0.674,-1.237 -0.222,-0.428 -0.368,-0.893 -0.542,-1.348 -0.157,-0.461 -0.258,-0.937 -0.384,-1.397 -0.086,-0.468 -0.178,-0.929 -0.222,-1.38 -0.057,-0.449 -0.087,-0.885 -0.093,-1.299 -0.024,-0.412 -0.002,-0.804 0.011,-1.162 0.068,-1.44 0.352,-2.363 0.352,-2.363 z" />
  </g>
  <g
     id="g318"
     transform="matrix(0.34602297,0,0,0.60139737,359.35235,150.95398)">
    <path
       style="fill:#006068"
       inkscape:connector-curvature="0"
       id="path316"
       d="m 410.14,258.342 c 0,0 0.032,0.241 0.118,0.651 0.084,0.41 0.213,0.992 0.413,1.67 0.091,0.342 0.222,0.701 0.346,1.083 0.131,0.38 0.298,0.77 0.457,1.175 0.186,0.396 0.359,0.81 0.584,1.207 0.105,0.201 0.213,0.403 0.321,0.607 l 0.373,0.583 c 0.224,0.405 0.521,0.761 0.786,1.13 0.265,0.371 0.58,0.69 0.856,1.026 0.135,0.173 0.297,0.313 0.445,0.462 0.148,0.149 0.295,0.293 0.438,0.435 0.275,0.295 0.583,0.52 0.849,0.752 0.278,0.217 0.505,0.461 0.749,0.615 0.235,0.171 0.44,0.319 0.608,0.442 0.337,0.251 0.528,0.405 0.528,0.405 0,0 -0.226,-0.08 -0.619,-0.238 -0.197,-0.08 -0.438,-0.176 -0.71,-0.296 -0.281,-0.104 -0.557,-0.297 -0.876,-0.479 -0.313,-0.19 -0.672,-0.375 -0.991,-0.652 -0.324,-0.269 -0.706,-0.514 -1.024,-0.852 -0.163,-0.164 -0.329,-0.331 -0.497,-0.501 -0.172,-0.166 -0.34,-0.341 -0.481,-0.54 -0.294,-0.389 -0.622,-0.765 -0.871,-1.193 l -0.385,-0.635 c -0.111,-0.221 -0.221,-0.44 -0.33,-0.658 -0.234,-0.429 -0.371,-0.891 -0.542,-1.319 -0.147,-0.438 -0.265,-0.869 -0.356,-1.281 -0.09,-0.412 -0.161,-0.804 -0.196,-1.17 -0.056,-0.363 -0.061,-0.701 -0.076,-0.997 -0.006,-0.297 -0.001,-0.556 0.013,-0.769 0.022,-0.423 0.07,-0.663 0.07,-0.663 z" />
  </g>
  <g
     id="g322"
     transform="matrix(0.34602297,0,0,0.60139737,359.35235,150.95398)">
    <path
       style="fill:#006068"
       inkscape:connector-curvature="0"
       id="path320"
       d="m 428.963,247.275 c 0,0 0.333,0.943 0.967,2.258 0.323,0.654 0.718,1.404 1.205,2.159 0.234,0.384 0.518,0.75 0.791,1.13 0.288,0.368 0.587,0.737 0.92,1.073 0.316,0.352 0.666,0.669 1.019,0.97 0.183,0.144 0.362,0.287 0.54,0.428 0.188,0.129 0.368,0.265 0.554,0.384 0.375,0.234 0.746,0.451 1.111,0.636 0.186,0.086 0.366,0.171 0.541,0.252 0.181,0.072 0.354,0.142 0.521,0.21 0.339,0.123 0.655,0.229 0.939,0.315 0.286,0.07 0.536,0.158 0.746,0.2 0.421,0.093 0.665,0.156 0.665,0.156 0,0 -0.247,0.019 -0.687,0.034 -0.22,0.01 -0.484,-0.011 -0.792,-0.028 -0.306,-0.026 -0.652,-0.069 -1.024,-0.147 -0.187,-0.042 -0.38,-0.087 -0.581,-0.133 -0.196,-0.064 -0.399,-0.13 -0.608,-0.198 -0.412,-0.152 -0.843,-0.334 -1.265,-0.568 -0.419,-0.238 -0.847,-0.499 -1.243,-0.817 -0.394,-0.319 -0.783,-0.658 -1.135,-1.033 -0.701,-0.751 -1.295,-1.593 -1.74,-2.435 -0.455,-0.836 -0.772,-1.666 -0.988,-2.388 -0.441,-1.448 -0.456,-2.458 -0.456,-2.458 z" />
  </g>
  <g
     id="g326"
     transform="matrix(0.34602297,0,0,0.60139737,359.35235,150.95398)">
    <path
       style="fill:#006068"
       inkscape:connector-curvature="0"
       id="path324"
       d="m 443.763,233.509 c 0,0 0.141,0.201 0.409,0.53 0.266,0.33 0.653,0.791 1.151,1.305 0.242,0.263 0.527,0.525 0.82,0.807 0.294,0.28 0.633,0.543 0.965,0.831 0.356,0.261 0.707,0.55 1.099,0.792 0.192,0.127 0.386,0.255 0.579,0.384 l 0.616,0.33 c 0.396,0.25 0.834,0.414 1.251,0.607 0.416,0.196 0.854,0.313 1.266,0.471 0.205,0.084 0.418,0.122 0.623,0.177 0.206,0.053 0.407,0.105 0.603,0.156 0.392,0.118 0.775,0.15 1.127,0.217 0.354,0.045 0.677,0.143 0.969,0.147 0.293,0.025 0.548,0.048 0.759,0.066 0.424,0.043 0.67,0.076 0.67,0.076 0,0 -0.238,0.048 -0.663,0.115 -0.212,0.032 -0.471,0.074 -0.77,0.11 -0.3,0.057 -0.639,0.028 -1.01,0.035 -0.371,-0.007 -0.78,0.021 -1.202,-0.06 -0.421,-0.07 -0.881,-0.09 -1.331,-0.226 -0.227,-0.062 -0.457,-0.125 -0.69,-0.189 l -0.353,-0.098 c -0.116,-0.037 -0.228,-0.092 -0.343,-0.137 -0.453,-0.196 -0.931,-0.365 -1.363,-0.624 l -0.654,-0.372 c -0.205,-0.143 -0.409,-0.285 -0.613,-0.426 -0.418,-0.266 -0.76,-0.617 -1.12,-0.915 -0.339,-0.323 -0.655,-0.647 -0.93,-0.976 -0.278,-0.324 -0.526,-0.643 -0.73,-0.954 -0.222,-0.298 -0.383,-0.601 -0.538,-0.857 -0.144,-0.265 -0.263,-0.497 -0.349,-0.695 -0.18,-0.39 -0.248,-0.627 -0.248,-0.627 z" />
  </g>
  <g
     id="g384"
     transform="matrix(0.34602297,0,0,0.60139737,359.35235,150.95398)">
    <g
       id="g378">
      <rect
         style="fill:#ffc843"
         id="rect376"
         height="56.993"
         width="18.757"
         y="260.134"
         x="227.707" />
    </g>
    <g
       id="g382">
      <path
         style="fill:#264c59"
         inkscape:connector-curvature="0"
         id="path380"
         d="m 246.464,317.127 -4.689,0.143 -4.688,0.108 -9.379,0.213 -0.457,0.011 -0.008,-0.475 -0.226,-14.249 c -0.05,-4.749 -0.126,-9.499 -0.149,-14.248 l -0.088,-14.248 -0.034,-14.248 -0.002,-0.964 0.964,0.003 18.757,0.049 0.919,0.002 -0.007,0.91 -0.104,14.248 -0.176,14.248 -0.118,7.124 c -0.032,2.375 -0.1,4.75 -0.15,7.125 l -0.163,7.124 c -0.047,2.374 -0.132,4.749 -0.202,7.124 z m 0,0 c -0.069,-2.375 -0.155,-4.75 -0.201,-7.124 l -0.163,-7.124 c -0.051,-2.375 -0.118,-4.75 -0.149,-7.125 l -0.118,-7.124 -0.176,-14.248 -0.104,-14.248 0.912,0.912 -18.757,0.05 0.962,-0.962 -0.034,14.248 -0.088,14.248 c -0.023,4.749 -0.1,9.499 -0.149,14.248 l -0.226,14.249 -0.465,-0.465 9.379,0.213 4.688,0.108 z" />
    </g>
  </g>
  <g
     id="g394"
     transform="matrix(0.34602297,0,0,0.60139737,359.35235,150.95398)">
    <g
       id="g388">
      <rect
         style="fill:#ffc843"
         id="rect386"
         height="40.398998"
         width="13.296"
         y="268.431"
         x="267.591" />
    </g>
    <g
       id="g392">
      <path
         style="fill:#264c59"
         inkscape:connector-curvature="0"
         id="path390"
         d="m 280.887,308.83 c -2.216,0.1 -4.433,0.189 -6.648,0.263 l -6.647,0.203 -0.455,0.015 -0.011,-0.48 -0.12,-5.05 -0.104,-5.05 c -0.051,-3.367 -0.126,-6.734 -0.149,-10.101 -0.027,-3.366 -0.082,-6.732 -0.088,-10.099 l -0.034,-10.1 -0.003,-0.965 0.965,0.003 13.296,0.05 0.922,0.003 -0.01,0.909 -0.104,10.1 -0.177,10.099 c -0.079,3.366 -0.149,6.733 -0.258,10.101 l -0.167,5.05 z m 0,0 -0.207,-5.05 -0.167,-5.05 c -0.108,-3.367 -0.179,-6.734 -0.259,-10.101 l -0.176,-10.099 -0.104,-10.1 0.912,0.912 -13.296,0.049 0.962,-0.961 -0.034,10.1 c -0.006,3.367 -0.061,6.733 -0.088,10.099 -0.023,3.366 -0.099,6.733 -0.149,10.101 l -0.104,5.05 -0.12,5.05 -0.466,-0.466 6.647,0.203 c 2.216,0.074 4.433,0.163 6.649,0.263 z" />
    </g>
  </g>
  <g
     id="g404"
     transform="matrix(0.34602297,0,0,0.60139737,359.35235,150.95398)">
    <g
       id="g398">
      <rect
         style="fill:#ffc843"
         id="rect396"
         height="40.398998"
         width="13.296"
         y="268.431"
         x="193.284" />
    </g>
    <g
       id="g402">
      <path
         style="fill:#264c59"
         inkscape:connector-curvature="0"
         id="path400"
         d="m 206.58,308.83 c -2.217,0.1 -4.433,0.189 -6.648,0.263 l -6.647,0.203 -0.455,0.015 -0.011,-0.48 -0.12,-5.05 -0.104,-5.05 c -0.051,-3.367 -0.127,-6.734 -0.149,-10.101 -0.028,-3.366 -0.082,-6.732 -0.088,-10.099 l -0.034,-10.1 -0.003,-0.965 0.965,0.003 13.296,0.05 0.921,0.003 -0.009,0.909 -0.104,10.1 -0.177,10.099 c -0.08,3.366 -0.149,6.733 -0.258,10.101 l -0.167,5.05 z m 0,0 -0.207,-5.05 -0.167,-5.05 c -0.109,-3.367 -0.179,-6.734 -0.259,-10.101 l -0.176,-10.099 -0.104,-10.1 0.912,0.912 -13.296,0.049 0.961,-0.961 -0.033,10.1 c -0.006,3.367 -0.061,6.733 -0.088,10.099 -0.023,3.366 -0.1,6.733 -0.15,10.101 l -0.104,5.05 -0.12,5.05 -0.466,-0.466 6.647,0.203 c 2.217,0.074 4.433,0.163 6.65,0.263 z" />
    </g>
  </g>
  <g
     id="g134"
     transform="matrix(0.34392585,-0.06611148,0.03803822,0.59775251,355.05841,167.56926)">
    <rect
       style="fill:#006068"
       id="rect132"
       height="9.6199999"
       width="29.745001"
       y="112.352"
       x="68.994003" />
  </g>
  <g
     id="g138"
     transform="matrix(0.34392585,-0.06611148,0.03803822,0.59775251,355.05841,167.56926)">
    <circle
       style="fill:#264c59"
       id="circle136"
       r="13.788"
       cy="117.162"
       cx="58.091999" />
  </g>
  <g
     id="g148"
     transform="matrix(0.34392585,-0.06611148,0.03803822,0.59775251,355.05841,167.56926)">
    <g
       id="g142">
      <path
         style="fill:#008996"
         inkscape:connector-curvature="0"
         id="path140"
         d="m 97.052,84.775 c 0,0 -10.261,35.278 -4.168,67.82 0,0 22.124,3.364 34.31,3.043 l 2.564,-69.26 c 0,0.001 -12.825,-5.13 -32.706,-1.603 z" />
    </g>
    <g
       id="g146">
      <path
         style="fill:#264c59"
         inkscape:connector-curvature="0"
         id="path144"
         d="m 110.482,154.741 c 5.822,0.569 12.007,0.995 16.711,0.871 l 2.564,-69.26 c 0,0 -6.966,-2.814 -20.922,-2.787 -3.412,11.591 -3.073,35.196 1.647,71.176 z" />
    </g>
  </g>
  <g
     id="g152"
     transform="matrix(0.34392585,-0.06611148,0.03803822,0.59775251,355.05841,167.56926)">
    <rect
       style="fill:#006068"
       id="rect150"
       height="29.745001"
       width="9.6199999"
       transform="matrix(0.0089,1,-1,0.0089,499.0125,-266.3358)"
       y="103.705"
       x="379.05899" />
  </g>
  <g
     id="g156"
     transform="matrix(0.34392585,-0.06611148,0.03803822,0.59775251,355.05841,167.56926)">
    <circle
       style="fill:#264c59"
       id="circle154"
       r="13.788"
       cy="118.346"
       cx="409.64301" />
  </g>
  <g
     id="g166"
     transform="matrix(0.34392585,-0.06611148,0.03803822,0.59775251,355.05841,167.56926)">
    <g
       id="g160">
      <path
         style="fill:#008996"
         inkscape:connector-curvature="0"
         id="path158"
         d="m 373.481,84.06 c 0,0 7.275,36.012 -1.516,67.932 0,0 -22.329,1.502 -34.444,0.165 l 3.233,-69.233 c 10e-4,-0.001 13.212,-4.041 32.727,1.136 z" />
    </g>
    <g
       id="g164">
      <path
         style="fill:#264c59"
         inkscape:connector-curvature="0"
         id="path162"
         d="m 354.248,152.657 c -5.849,0.081 -12.048,-0.013 -16.725,-0.529 l 3.234,-69.232 c 0,0 6.175,-1.887 16.314,-1.428 2.433,11.836 4.889,35.73 -2.823,71.189 z" />
    </g>
  </g>
  <g
     id="g274"
     transform="matrix(0.34392585,-0.06611148,0.03803822,0.59775251,355.05841,167.56926)">
    <path
       style="fill:#006068"
       inkscape:connector-curvature="0"
       id="path272"
       d="m 416.96977,216.43874 c 0,0 0.243,-0.073 0.653,-0.23 0.409,-0.157 0.988,-0.386 1.655,-0.71 0.338,-0.151 0.686,-0.354 1.061,-0.544 0.366,-0.21 0.748,-0.436 1.134,-0.681 0.381,-0.252 0.773,-0.514 1.149,-0.811 0.188,-0.146 0.39,-0.281 0.572,-0.439 l 0.544,-0.483 c 0.385,-0.298 0.697,-0.674 1.042,-1.005 0.333,-0.343 0.624,-0.714 0.928,-1.056 0.292,-0.352 0.534,-0.724 0.792,-1.058 0.265,-0.331 0.448,-0.688 0.653,-0.996 0.187,-0.319 0.402,-0.593 0.528,-0.868 0.145,-0.269 0.27,-0.502 0.373,-0.695 0.214,-0.385 0.346,-0.605 0.346,-0.605 0,0 -0.055,0.246 -0.167,0.675 -0.058,0.214 -0.126,0.477 -0.215,0.774 -0.072,0.306 -0.229,0.617 -0.375,0.973 -0.157,0.349 -0.293,0.75 -0.532,1.12 -0.229,0.377 -0.436,0.801 -0.726,1.188 -0.145,0.193 -0.292,0.391 -0.441,0.59 -0.15,0.199 -0.295,0.408 -0.479,0.585 -0.358,0.36 -0.685,0.768 -1.087,1.095 l -0.592,0.501 c -0.198,0.164 -0.414,0.304 -0.619,0.455 -0.403,0.312 -0.85,0.544 -1.266,0.788 -0.42,0.238 -0.852,0.423 -1.255,0.599 -0.411,0.162 -0.8,0.312 -1.172,0.411 -0.364,0.12 -0.711,0.19 -1.015,0.257 -0.304,0.062 -0.572,0.1 -0.794,0.126 -0.44,0.05 -0.695,0.044 -0.695,0.044 z" />
  </g>
  <g
     id="g330"
     transform="matrix(0.34392585,-0.06611148,0.03803822,0.59775251,355.05841,167.56926)">
    <path
       style="fill:#00758d"
       inkscape:connector-curvature="0"
       id="path328"
       d="m 125.999,50.146 c 0,0 -18.277,79.842 -2.405,138.04 0,0 80.804,37.516 212.591,2.405 0,0 23.087,-88.019 8.177,-135.154 C 344.361,55.436 215.46,15.515 125.999,50.146 Z" />
  </g>
  <g
     id="g346"
     transform="matrix(0.34392585,-0.06611148,0.03803822,0.59775251,355.05841,167.56926)">
    <g
       id="g340">
      <g
         id="g334">
        <path
           style="fill:#ffffff"
           inkscape:connector-curvature="0"
           id="path332"
           d="m 291.935,150.191 c -21.481,0 -38.959,-17.477 -38.959,-38.959 0,-21.482 17.478,-38.959 38.959,-38.959 21.482,0 38.959,17.477 38.959,38.959 0,21.482 -17.477,38.959 -38.959,38.959 z" />
      </g>
      <g
         id="g338">
        <path
           style="fill:#d1d3d3"
           inkscape:connector-curvature="0"
           id="path336"
           d="m 291.935,74.678 c 20.156,0 36.555,16.398 36.555,36.554 0,20.156 -16.398,36.554 -36.555,36.554 -20.155,0 -36.554,-16.398 -36.554,-36.554 0,-20.156 16.398,-36.554 36.554,-36.554 m 0,-4.81 c -22.844,0 -41.363,18.52 -41.363,41.364 0,22.845 18.52,41.364 41.363,41.364 22.845,0 41.364,-18.519 41.364,-41.364 0,-22.844 -18.52,-41.364 -41.364,-41.364 z" />
      </g>
    </g>
    <g
       id="g344">
      <path
         style="fill:#264c59"
         inkscape:connector-curvature="0"
         id="path342"
         d="m 250.571,111.232 c 0,0 0.006,-0.253 0.017,-0.745 0.021,-0.491 0.001,-1.223 0.089,-2.171 0.113,-1.897 0.427,-4.69 1.354,-8.126 0.434,-1.726 1.094,-3.588 1.92,-5.567 0.834,-1.978 1.896,-4.054 3.233,-6.149 2.665,-4.186 6.441,-8.49 11.483,-12.063 5.037,-3.542 11.359,-6.31 18.463,-7.319 0.885,-0.14 1.785,-0.206 2.688,-0.304 0.454,-0.024 0.909,-0.049 1.365,-0.074 l 0.687,-0.037 0.703,-0.006 c 0.448,-0.002 0.897,-0.004 1.348,-0.006 0.455,0.003 0.938,0.038 1.407,0.056 0.956,0.025 1.883,0.14 2.827,0.228 1.877,0.239 3.776,0.552 5.65,1.055 0.948,0.218 1.872,0.533 2.813,0.814 0.465,0.157 0.925,0.333 1.388,0.501 l 0.696,0.256 0.684,0.289 c 3.666,1.512 7.182,3.589 10.395,6.146 3.2,2.573 6.077,5.649 8.46,9.123 1.196,1.734 2.242,3.579 3.19,5.48 0.935,1.91 1.691,3.91 2.346,5.945 0.648,2.04 1.1,4.141 1.435,6.259 0.143,1.063 0.289,2.127 0.353,3.199 0.043,0.535 0.088,1.07 0.094,1.606 l 0.044,1.67 -0.041,1.522 c -0.011,0.259 -0.006,0.495 -0.029,0.774 l -0.063,0.825 c -0.049,0.545 -0.07,1.11 -0.146,1.638 l -0.207,1.596 c -0.339,2.118 -0.781,4.221 -1.432,6.261 -0.653,2.036 -1.412,4.035 -2.345,5.946 -0.943,1.904 -1.993,3.749 -3.189,5.483 -2.377,3.479 -5.262,6.55 -8.458,9.13 -3.215,2.558 -6.73,4.635 -10.399,6.147 l -0.684,0.289 -0.695,0.256 c -0.465,0.168 -0.924,0.344 -1.389,0.503 -0.94,0.281 -1.865,0.597 -2.813,0.814 -1.876,0.503 -3.775,0.816 -5.653,1.054 -0.943,0.088 -1.878,0.203 -2.813,0.227 -0.467,0.018 -0.932,0.052 -1.396,0.056 -0.464,-0.002 -0.927,-0.004 -1.389,-0.005 l -0.718,-0.006 -0.668,-0.037 c -0.444,-0.025 -0.887,-0.05 -1.329,-0.074 -0.908,-0.097 -1.833,-0.166 -2.716,-0.305 -7.106,-1.011 -13.428,-3.784 -18.466,-7.325 -5.042,-3.575 -8.817,-7.88 -11.481,-12.067 -1.338,-2.095 -2.399,-4.171 -3.231,-6.15 -0.827,-1.979 -1.487,-3.841 -1.921,-5.567 -0.927,-3.437 -1.24,-6.229 -1.354,-8.126 -0.088,-0.949 -0.068,-1.68 -0.089,-2.171 -0.012,-0.494 -0.018,-0.748 -0.018,-0.748 z m 0,0 c 0,0 0.007,0.254 0.021,0.746 0.024,0.491 0.008,1.222 0.102,2.17 0.133,1.894 0.435,4.69 1.418,8.105 0.973,3.404 2.592,7.461 5.378,11.539 2.755,4.072 6.657,8.184 11.756,11.4 2.545,1.603 5.368,2.989 8.411,4.054 3.046,1.056 6.326,1.726 9.713,2.018 0.848,0.082 1.682,0.09 2.535,0.134 0.442,-0.002 0.886,-0.004 1.331,-0.006 l 0.669,-0.003 0.621,-0.034 c 0.434,-0.024 0.869,-0.048 1.306,-0.073 0.436,-0.03 0.87,-0.089 1.308,-0.132 0.875,-0.073 1.744,-0.235 2.618,-0.37 1.74,-0.33 3.485,-0.724 5.194,-1.297 0.863,-0.252 1.7,-0.598 2.551,-0.907 0.418,-0.176 0.836,-0.352 1.256,-0.529 l 0.628,-0.268 0.615,-0.298 c 6.597,-3.124 12.453,-8.238 16.544,-14.606 2.038,-3.188 3.646,-6.673 4.725,-10.331 0.54,-1.829 0.926,-3.703 1.219,-5.59 l 0.177,-1.423 c 0.067,-0.478 0.075,-0.93 0.117,-1.395 0.094,-0.883 0.077,-1.967 0.113,-2.963 l -0.033,-1.375 c 0,-0.479 -0.039,-0.956 -0.075,-1.433 -0.05,-0.957 -0.178,-1.904 -0.297,-2.853 -0.06,-0.474 -0.159,-0.942 -0.237,-1.413 l -0.123,-0.706 -0.157,-0.698 c -0.108,-0.465 -0.196,-0.935 -0.318,-1.395 l -0.379,-1.379 c -1.081,-3.657 -2.682,-7.147 -4.723,-10.334 -4.088,-6.373 -9.945,-11.491 -16.547,-14.613 l -0.615,-0.298 -0.628,-0.268 c -0.42,-0.177 -0.838,-0.354 -1.255,-0.531 -0.852,-0.309 -1.689,-0.655 -2.553,-0.907 -1.709,-0.572 -3.456,-0.966 -5.196,-1.296 -0.874,-0.134 -1.75,-0.296 -2.604,-0.368 -0.434,-0.043 -0.852,-0.102 -1.296,-0.132 -0.45,-0.025 -0.898,-0.05 -1.346,-0.074 l -0.638,-0.034 -0.649,-0.003 c -0.433,-0.002 -0.864,-0.004 -1.295,-0.007 -0.858,0.043 -1.716,0.053 -2.563,0.135 -3.388,0.294 -6.669,0.962 -9.715,2.022 -3.044,1.065 -5.866,2.452 -8.412,4.056 -5.098,3.218 -8.999,7.333 -11.754,11.405 -2.786,4.077 -4.403,8.136 -5.376,11.539 -0.983,3.416 -1.285,6.212 -1.418,8.105 -0.094,0.948 -0.077,1.679 -0.102,2.17 -0.015,0.491 -0.022,0.744 -0.022,0.744 z" />
    </g>
  </g>
  <g
     id="g350"
     transform="matrix(0.56095147,-0.10782944,0.08986299,1.412154,285.10443,73.644959)"
     style="stroke-width:0.509436">
    <circle
       style="fill:#264c59;stroke-width:0.509436"
       id="circle348"
       r="10.341"
       cy="124.696"
       cx="291.228" />
  </g>
  <g
     id="g366"
     transform="matrix(0.34392585,-0.06611148,0.03803822,0.59775251,355.05841,167.56926)">
    <g
       id="g360">
      <g
         id="g354">
        <path
           style="fill:#ffffff"
           inkscape:connector-curvature="0"
           id="path352"
           d="m 170.475,150.191 c -21.481,0 -38.959,-17.477 -38.959,-38.959 0,-21.482 17.478,-38.959 38.959,-38.959 21.482,0 38.959,17.477 38.959,38.959 0,21.482 -17.477,38.959 -38.959,38.959 z" />
      </g>
      <g
         id="g358">
        <path
           style="fill:#d1d3d3"
           inkscape:connector-curvature="0"
           id="path356"
           d="m 170.475,74.678 c 20.156,0 36.555,16.398 36.555,36.554 0,20.156 -16.398,36.554 -36.555,36.554 -20.157,0 -36.554,-16.398 -36.554,-36.554 0,-20.156 16.397,-36.554 36.554,-36.554 m 0,-4.81 c -22.844,0 -41.363,18.52 -41.363,41.364 0,22.845 18.52,41.364 41.363,41.364 22.845,0 41.364,-18.519 41.364,-41.364 0,-22.844 -18.52,-41.364 -41.364,-41.364 z" />
      </g>
    </g>
    <g
       id="g364">
      <path
         style="fill:#264c59"
         inkscape:connector-curvature="0"
         id="path362"
         d="m 211.839,111.232 c 0,0 -0.006,0.254 -0.018,0.746 -0.021,0.491 0,1.223 -0.088,2.171 -0.113,1.898 -0.428,4.69 -1.354,8.126 -0.434,1.727 -1.095,3.588 -1.921,5.567 -0.833,1.978 -1.896,4.054 -3.232,6.148 -2.664,4.187 -6.441,8.49 -11.483,12.063 -5.037,3.542 -11.359,6.311 -18.464,7.32 -0.884,0.139 -1.784,0.206 -2.688,0.304 -0.454,0.025 -0.909,0.05 -1.366,0.074 l -0.687,0.037 -0.702,0.006 c -0.448,0.002 -0.897,0.004 -1.348,0.006 -0.455,-0.003 -0.938,-0.038 -1.408,-0.056 -0.956,-0.025 -1.883,-0.139 -2.827,-0.228 -1.877,-0.239 -3.775,-0.552 -5.65,-1.055 -0.947,-0.218 -1.871,-0.533 -2.812,-0.815 -0.466,-0.156 -0.925,-0.332 -1.389,-0.5 l -0.695,-0.257 -0.684,-0.289 c -3.667,-1.512 -7.182,-3.589 -10.396,-6.146 -3.2,-2.573 -6.076,-5.65 -8.459,-9.123 -1.197,-1.734 -2.243,-3.579 -3.191,-5.48 -0.935,-1.91 -1.69,-3.91 -2.345,-5.945 -0.648,-2.039 -1.101,-4.14 -1.436,-6.259 -0.142,-1.063 -0.288,-2.126 -0.352,-3.199 -0.044,-0.535 -0.089,-1.07 -0.094,-1.607 l -0.044,-1.67 0.04,-1.522 c 0.012,-0.26 0.007,-0.495 0.03,-0.774 l 0.063,-0.825 c 0.05,-0.545 0.071,-1.11 0.147,-1.637 l 0.207,-1.596 c 0.339,-2.119 0.781,-4.222 1.432,-6.261 0.653,-2.036 1.411,-4.035 2.344,-5.946 0.944,-1.904 1.994,-3.748 3.19,-5.482 2.377,-3.479 5.262,-6.55 8.458,-9.13 3.214,-2.558 6.73,-4.635 10.398,-6.147 l 0.685,-0.289 0.695,-0.256 c 0.465,-0.168 0.924,-0.344 1.388,-0.503 0.941,-0.282 1.866,-0.596 2.813,-0.814 1.875,-0.503 3.774,-0.816 5.652,-1.054 0.944,-0.088 1.878,-0.203 2.813,-0.227 0.467,-0.018 0.933,-0.052 1.396,-0.056 0.464,0.001 0.926,0.003 1.388,0.005 l 0.718,0.007 0.668,0.037 c 0.444,0.024 0.888,0.049 1.33,0.074 0.908,0.097 1.832,0.165 2.716,0.305 7.105,1.011 13.428,3.784 18.465,7.326 5.042,3.574 8.818,7.88 11.482,12.067 1.337,2.095 2.399,4.171 3.231,6.149 0.826,1.979 1.486,3.841 1.921,5.567 0.926,3.437 1.24,6.229 1.354,8.126 0.088,0.949 0.067,1.68 0.088,2.171 0.015,0.493 0.021,0.746 0.021,0.746 z m 0,0 c 0,0 -0.007,-0.253 -0.021,-0.745 -0.024,-0.491 -0.009,-1.223 -0.102,-2.17 -0.133,-1.893 -0.436,-4.69 -1.418,-8.105 -0.973,-3.403 -2.592,-7.461 -5.378,-11.538 -2.756,-4.071 -6.657,-8.184 -11.756,-11.401 -2.546,-1.603 -5.368,-2.989 -8.411,-4.053 -3.047,-1.057 -6.327,-1.726 -9.714,-2.019 -0.848,-0.082 -1.682,-0.091 -2.534,-0.134 -0.442,0.002 -0.886,0.004 -1.331,0.006 l -0.669,0.003 -0.622,0.034 c -0.434,0.024 -0.869,0.049 -1.305,0.074 -0.436,0.029 -0.871,0.089 -1.308,0.132 -0.875,0.074 -1.743,0.236 -2.618,0.37 -1.74,0.33 -3.486,0.724 -5.194,1.296 -0.864,0.252 -1.701,0.599 -2.552,0.908 -0.417,0.176 -0.835,0.353 -1.255,0.529 l -0.628,0.267 -0.615,0.299 c -6.598,3.123 -12.454,8.238 -16.544,14.605 -2.039,3.187 -3.646,6.674 -4.725,10.331 -0.54,1.829 -0.926,3.702 -1.219,5.59 l -0.177,1.423 c -0.067,0.478 -0.075,0.929 -0.117,1.395 -0.093,0.883 -0.077,1.966 -0.114,2.963 l 0.033,1.375 c 0,0.479 0.039,0.956 0.076,1.433 0.049,0.956 0.178,1.904 0.296,2.853 0.061,0.474 0.16,0.941 0.237,1.413 l 0.123,0.706 0.158,0.698 c 0.108,0.465 0.196,0.935 0.318,1.396 l 0.379,1.38 c 1.08,3.656 2.682,7.147 4.723,10.334 4.087,6.373 9.945,11.492 16.546,14.613 l 0.616,0.298 0.628,0.267 c 0.419,0.177 0.837,0.354 1.255,0.531 0.852,0.309 1.688,0.655 2.553,0.907 1.708,0.573 3.456,0.967 5.195,1.296 0.874,0.134 1.75,0.296 2.605,0.368 0.434,0.042 0.851,0.102 1.296,0.132 0.449,0.025 0.898,0.049 1.346,0.074 l 0.638,0.033 0.648,0.003 c 0.434,0.002 0.865,0.004 1.296,0.007 0.857,-0.042 1.716,-0.053 2.563,-0.135 3.388,-0.294 6.669,-0.963 9.715,-2.022 3.043,-1.066 5.866,-2.452 8.411,-4.055 5.1,-3.219 9,-7.333 11.755,-11.405 2.786,-4.077 4.403,-8.136 5.376,-11.54 0.982,-3.416 1.285,-6.212 1.418,-8.105 0.093,-0.947 0.077,-1.679 0.102,-2.17 0.015,-0.491 0.022,-0.745 0.022,-0.745 z" />
    </g>
  </g>
  <g
     id="g370"
     transform="matrix(0.58068107,-0.11162197,0.08877195,1.3950086,308.2848,71.891595)"
     style="stroke-width:0.503774">
    <circle
       style="fill:#264c59;stroke-width:0.503774"
       id="circle368"
       cy="124.696"
       cx="169.76801"
       r="10.341" />
  </g>
  <g
     id="g374"
     transform="matrix(0.34392585,-0.06611148,0.03803822,0.59775251,355.05841,167.56926)">
    <path
       style="fill:#264c59"
       inkscape:connector-curvature="0"
       id="path372"
       d="m 222.193,136.24 c 0.104,0.582 0.202,1.163 0.281,1.744 0.077,0.581 0.17,1.162 0.23,1.744 0.138,1.162 0.269,2.325 0.367,3.487 0.203,2.325 0.343,4.649 0.436,6.974 l -1.314,-1.313 c 1.323,-0.049 2.646,-0.085 3.969,-0.105 l 1.983,-0.018 c 0.661,-0.008 1.323,-0.004 1.984,0.001 0.661,0.005 1.322,0.005 1.983,0.022 l 1.984,0.044 c 1.323,0.039 2.646,0.093 3.968,0.163 l -1.205,1.206 c 0.104,-1.924 0.247,-3.848 0.437,-5.771 0.043,-0.481 0.103,-0.962 0.158,-1.443 l 0.169,-1.443 c 0.132,-0.962 0.263,-1.924 0.441,-2.886 0.18,0.962 0.311,1.924 0.442,2.886 l 0.169,1.443 c 0.055,0.481 0.115,0.962 0.158,1.443 0.189,1.924 0.332,3.848 0.437,5.771 l 0.062,1.139 -1.268,0.067 c -1.322,0.069 -2.645,0.124 -3.968,0.163 l -1.984,0.044 c -0.661,0.017 -1.322,0.017 -1.983,0.022 -0.661,0.005 -1.323,0.01 -1.984,0.002 l -1.983,-0.018 c -1.323,-0.021 -2.646,-0.057 -3.969,-0.105 l -1.363,-0.05 0.05,-1.264 c 0.093,-2.325 0.231,-4.649 0.436,-6.974 0.098,-1.162 0.229,-2.325 0.367,-3.487 0.06,-0.582 0.153,-1.163 0.23,-1.744 0.079,-0.582 0.177,-1.163 0.28,-1.744 z" />
  </g>
  <g
     id="g488"
     transform="matrix(0.34602144,-0.00178837,0.00102897,0.60139471,361.44934,152.37614)">
    <path
       style="fill:#264c59;fill-opacity:1;fill-rule:evenodd;stroke-width:1"
       id="path5229"
       sodipodi:type="arc"
       sodipodi:cx="228.82405"
       sodipodi:cy="162.32596"
       sodipodi:rx="46.875786"
       sodipodi:ry="37.942413"
       sodipodi:start="6.2711549"
       sodipodi:end="3.1415927"
       d="m 275.69644,161.86951 a 46.875786,37.942413 0 0 1 -23.10967,33.16233 46.875786,37.942413 0 0 1 -47.03763,0.22902 46.875786,37.942413 0 0 1 -23.60087,-32.9349 h 46.87578 z"
       sodipodi:arc-type="slice" />
  </g>
  <ellipse
     style="fill:#ffffff;fill-opacity:1;fill-rule:evenodd;stroke-width:0.458007"
     id="path5223"
     cx="408.27362"
     cy="297.13754"
     rx="1.5058051"
     ry="2.8893347"
     transform="matrix(0.98202133,-0.18876999,0.06350695,0.9979814,0,0)" />
  <ellipse
     ry="2.8893347"
     rx="1.5058051"
     cy="295.25317"
     cx="450.87689"
     id="ellipse5225"
     style="fill:#ffffff;fill-opacity:1;fill-rule:evenodd;stroke-width:0.458007"
     transform="matrix(0.98202133,-0.18876999,0.06350695,0.9979814,0,0)" />
  <g
     transform="matrix(0.30851722,-0.00159454,9.1743898e-4,0.53621136,370.05696,164.13726)"
     id="g5241"
     style="fill:#1c3842;fill-opacity:1;stroke-width:1.12156">
    <path
       d="m 275.69644,161.86951 a 46.875786,37.942413 0 0 1 -23.10967,33.16233 46.875786,37.942413 0 0 1 -47.03763,0.22902 46.875786,37.942413 0 0 1 -23.60087,-32.9349 h 46.87578 z"
       sodipodi:end="3.1415927"
       sodipodi:start="6.2711549"
       sodipodi:ry="37.942413"
       sodipodi:rx="46.875786"
       sodipodi:cy="162.32596"
       sodipodi:cx="228.82405"
       sodipodi:type="arc"
       id="path5239"
       style="fill:#1c3842;fill-opacity:1;fill-rule:evenodd;stroke-width:1.12156"
       sodipodi:arc-type="slice" />
  </g>
  <g
     transform="matrix(0.30872389,0.04669525,-0.02686681,0.53657055,375.03574,152.8079)"
     id="g5233"
     style="stroke-width:1.1166">
    <path
       style="fill:#ffffff;fill-opacity:1;fill-rule:evenodd;stroke-width:1"
       d="m 213.41016,165.64844 0.8457,18.52148 c 0,0 15.61734,0.91011 15.51562,0.88281 -0.10172,-0.0273 1.46094,-19.25 1.46094,-19.25 l 3.53125,19.41016 15.08789,-2.71484 0.002,-16.75977 -20.28321,0.0371 z m 31.36718,22.06054 -11.08984,1.86719 -0.98633,8.75195 c 4.75225,-0.27457 9.45175,-1.21293 13.89649,-2.79882 z m -28.67578,0.19727 -1.24804,8.30078 c 5.61191,1.71676 11.56181,2.44593 17.45507,2.15039 l -2.73632,-8.54492 z"
       id="path5231"
       transform="matrix(1.1112766,-0.10886876,0.10886876,1.1112766,-45.681486,4.7878447)"
       inkscape:connector-curvature="0" />
  </g>
  <path
     style="fill:#264c59;fill-opacity:0.505556;stroke:none;stroke-width:0.456177px;stroke-linecap:butt;stroke-linejoin:miter;stroke-opacity:1"
     d="m 435.25015,251.51603 0.10263,1.56083 6.02975,-0.75812 0.23093,0.22298 6.28632,-0.40136 -0.0257,-0.8919 z"
     id="path5363"
     inkscape:connector-curvature="0" />
</svg>
