<svg width="800" height="600" xmlns="http://www.w3.org/2000/svg">
 <!-- Created with Method Draw - http://github.com/duopixel/Method-Draw/ -->

 <g id="Layer_1">
  <title>Layer 1</title>
  <path stroke="#000" id="svg_1" d="m378.2876,582.36938c-35.33354,-8.94222 -55.80327,-45.70564 -53.38874,-79.0562c-0.90454,-43.56207 3.30835,-89.40048 -18.52673,-129.4553c-12.44572,-29.90653 -33.64713,-56.31137 -42.49479,-87.47722c-11.01,-48.35172 2.5897,-103.1535 43.56631,-135.61387c46.21196,-37.77685 120.00895,-42.70063 170.87915,-10.59261c35.87913,23.57758 61.76673,62.46513 60.80499,104.9006c4.20999,31.7087 -8.9077,61.53347 -24.33921,88.79227c-11.05605,21.94799 -23.9679,43.42517 -34.00297,65.61788c-2.64549,45.50328 -1.12825,91.42392 -8.30388,136.53581c-11.95325,34.95654 -57.00049,58.72352 -94.19412,46.34862l0,0.00002zm93.32115,-81.36062c-20.96947,-10.78339 -51.10247,-3.77255 -75.47641,-6.09405c-19.91028,3.79924 -55.28873,-7.79254 -65.87344,9.5956c24.20657,9.03377 52.65435,2.26191 78.42454,3.75651c20.62002,-1.88935 44.34382,1.79168 62.92531,-7.25808l0,0.00002zm-1.57046,-20.29122c3.086,-27.39618 -42.32506,-13.4164 -60.77272,-17.49471c-24.4167,4.71488 -63.27367,-10.09235 -78.62984,10.95705c9.0996,21.15304 49.68139,6.27635 70.99162,10.96966c22.72521,-0.76825 46.30151,0.77704 68.41092,-4.43199l0.00002,0zm0.28273,-48.00049c5.99483,-53.36846 40.1986,-97.80447 60.00411,-146.62304c16.2839,-58.44986 -15.96588,-125.22612 -74.35377,-149.76089c-58.11617,-27.47848 -135.54572,-6.72015 -168.38909,47.12334c-31.64482,44.47611 -25.60563,104.90674 5.32321,148.15939c22.06851,37.80056 39.67579,80.28044 36.80762,124.27163c45.80906,0 91.61814,0 137.42724,0c1.06028,-7.72336 2.1202,-15.44723 3.18068,-23.17042zm-101.41363,-75.60864c-18.14974,-30.10682 -36.78179,-60.44563 -49.42037,-93.07404c11.36289,-14.03236 14.66842,-29.66292 18.19826,-46.15024c31.89225,-5.97635 -4.05951,34.67262 26.0513,35.58865c26.72793,11.09433 15.00279,-53.83323 37.20886,-30.42991c-15.94029,25.68497 31.31097,51.23666 33.04513,14.49312c-2.29065,-27.74311 28.55992,-22.5452 16.53192,2.62351c0.99275,12.94723 23.08873,16.65904 23.46704,27.07234c-15.90691,32.91679 -29.73342,66.90081 -48.56901,98.41302c-4.23968,-12.20067 16.67502,-42.77959 23.3581,-60.73415c12.89588,-15.52019 23.97746,-57.3458 -9.64131,-51.64453c-19.50185,29.0191 -45.73599,-18.2921 -64.83102,9.51835c-16.20969,4.61286 -41.70398,-26.78188 -46.40624,3.40475c12.20845,35.85399 37.61152,66.4107 50.90285,101.89458c-4.5101,-2.53683 -7.07826,-6.98747 -9.89551,-10.97547l0,0.00002zm-25.47514,-131.40049c-8.82575,-4.10936 3.71997,21.84616 -0.00018,0l0.00018,0zm52.75135,3.06572c-11.45675,-18.49763 -5.3123,22.44342 0,0zm51.13106,0c-11.45675,-18.49763 -5.31238,22.44342 0,0zm-238.0389,-136.68158c-20.24957,-19.60635 -42.63298,-38.00368 -60.24345,-59.61526c43.9948,34.74319 84.26253,73.87146 123.91031,113.09772c10.52824,13.802 -18.36719,-12.88881 -23.74509,-17.36279c-13.45608,-11.88898 -26.7359,-23.95868 -39.92179,-36.11967l0.00002,0zm312.69405,56.05659c34.22672,-40.68531 66.16103,-83.33811 103.06247,-121.85618c-6.17908,16.58395 -26.07001,36.42785 -38.57668,53.50781c-20.88606,24.7896 -40.40904,51.00004 -64.29277,73.22634c-2.98094,3.00596 -7.43222,-4.11388 -0.1927,-4.87797l-0.0003,0l-0.00002,0zm-74.13588,-38.59759c11.82562,-32.26927 28.9789,-62.9858 48.11579,-91.86607c-0.44476,16.02132 -20.74086,46.38707 -30.49642,66.25289c-5.51866,7.99419 -10.1735,20.74326 -17.61937,25.61318zm-151.4385,-41.38414c-8.23764,-11.4632 -33.03513,-38.15491 -28.40506,-41.79494c23.90798,25.28919 48.22426,51.39157 65.39859,81.29822c-14.62567,-10.70142 -25.14945,-26.1578 -36.99355,-39.50328l0.00002,0zm94.67487,-9.02166c-1.66718,-10.7655 3.50825,-62.15762 6.38344,-27.26131c0.01022,21.86416 2.40241,46.47786 -3.97673,66.37835c-2.7317,-12.79444 -2.06894,-26.11424 -2.40671,-39.11703z" opacity="undefined" stroke-opacity="null" stroke-dasharray="null" stroke-width="null" fill="#000000"/>
 </g>
</svg>